<svg xmlns="http://www.w3.org/2000/svg" viewBox="0 0 434 369"><defs><style>.cls-1{fill:#000}</style></defs><g id="Layer_2" data-name="Layer 2"><g id="Layer_1-2" data-name="Layer 1"><circle class="cls-1" cx="217" cy="22" r="22"/><circle class="cls-1" cx="152" cy="87" r="22"/><circle class="cls-1" cx="217" cy="87" r="22"/><circle class="cls-1" cx="282" cy="87" r="22"/><circle class="cls-1" cx="87" cy="152" r="22"/><circle class="cls-1" cx="152" cy="152" r="22"/><circle class="cls-1" cx="217" cy="152" r="22"/><circle class="cls-1" cx="282" cy="152" r="22"/><circle class="cls-1" cx="347" cy="152" r="22"/><circle class="cls-1" cx="87" cy="217" r="22"/><circle class="cls-1" cx="152" cy="217" r="22"/><circle class="cls-1" cx="217" cy="217" r="22"/><circle class="cls-1" cx="282" cy="217" r="22"/><circle class="cls-1" cx="347" cy="217" r="22"/><circle class="cls-1" cx="22" cy="282" r="22"/><circle class="cls-1" cx="22" cy="217" r="22"/><circle class="cls-1" cx="87" cy="282" r="22"/><circle class="cls-1" cx="152" cy="282" r="22"/><circle class="cls-1" cx="217" cy="282" r="22"/><circle class="cls-1" cx="282" cy="282" r="22"/><circle class="cls-1" cx="347" cy="282" r="22"/><circle class="cls-1" cx="412" cy="282" r="22"/><circle class="cls-1" cx="412" cy="216" r="22"/><circle class="cls-1" cx="22" cy="347" r="22"/><circle class="cls-1" cx="87" cy="347" r="22"/><circle class="cls-1" cx="152" cy="347" r="22"/><circle class="cls-1" cx="217" cy="347" r="22"/><circle class="cls-1" cx="282" cy="347" r="22"/><circle class="cls-1" cx="347" cy="347" r="22"/><circle class="cls-1" cx="412" cy="347" r="22"/></g></g></svg>