<svg xmlns="http://www.w3.org/2000/svg" viewBox="0 0 88.13 66.28"><defs><style>.cls-1{fill:#5d8fcc;}</style></defs><title>accounts</title><g id="Layer_2" data-name="Layer 2"><g id="Layer_1-2" data-name="Layer 1"><path class="cls-1" d="M80.07,21.17H34.3a8.09,8.09,0,0,0-8.06,8.06v29a8.09,8.09,0,0,0,8.06,8.06H80.07a8.09,8.09,0,0,0,8.06-8.06v-29A8.07,8.07,0,0,0,80.07,21.17Zm3.72,37.16a2.93,2.93,0,0,1-2.92,2.92H34.21a2.93,2.93,0,0,1-2.92-2.92V37.93H83.79Zm0-28.08H31.28V29.14a2.93,2.93,0,0,1,2.92-2.92H80.87a2.93,2.93,0,0,1,2.92,2.92Z"/><path class="cls-1" d="M33.72,16.19H62.1L56.33,4.49A8.08,8.08,0,0,0,45.5.84l-41,20.27A8.08,8.08,0,0,0,.84,31.94l12.86,26a8.08,8.08,0,0,0,9.35,4.21,12.14,12.14,0,0,1-1.71-6.23V28.58A12.4,12.4,0,0,1,33.72,16.19Z"/><path class="cls-1" d="M39.55,58.11a5.16,5.16,0,0,0,4-1.83,5.23,5.23,0,1,0,0-6.79,5.22,5.22,0,1,0-4,8.63Z"/></g></g></svg>