<svg xmlns="http://www.w3.org/2000/svg" viewBox="0 0 15.69 16.81"><defs><style>.cls-1{fill:#5d8fcc;}</style></defs><title>calendar</title><g id="Layer_2" data-name="Layer 2"><g id="Layer_1-2" data-name="Layer 1"><path class="cls-1" d="M15.41,1.12h-2V.28A.28.28,0,0,0,13.17,0h-2a.28.28,0,0,0-.28.28v.84H4.76V.28A.28.28,0,0,0,4.48,0h-2a.28.28,0,0,0-.28.28v.84h-2A.28.28,0,0,0,0,1.4V16.53a.28.28,0,0,0,.28.28H15.41a.28.28,0,0,0,.28-.28V1.4A.28.28,0,0,0,15.41,1.12ZM11.49.56h1.4V2.24h-1.4V.56ZM2.8.56H4.2V2.24H2.8V.56ZM.56,1.68H2.24v.84a.28.28,0,0,0,.28.28h2a.28.28,0,0,0,.28-.28V1.68h6.16v.84a.28.28,0,0,0,.28.28h2a.28.28,0,0,0,.28-.28V1.68h1.68V4.2H.56Zm0,14.57V4.76H15.13V16.25Z"/><path class="cls-1" d="M10.09,6.44H2.52v8.13H13.17V6.44H10.09ZM8.13,7h2V9h-2Zm2,4.48h-2v-2h2Zm-4.48-2h2v2h-2ZM5.6,7h2V9h-2ZM3.08,7H5V9h-2Zm0,2.52H5v2h-2ZM5,14h-2V12H5Zm2.52,0h-2V12h2Zm2.52,0h-2V12h2Zm2.52,0h-2V12h2Zm0-2.52h-2v-2h2Zm0-4.48V9h-2V7Z"/></g></g></svg>