<svg xmlns="http://www.w3.org/2000/svg" viewBox="0 0 96.05 72.24"><defs><style>.cls-1{fill:#5d8fcc;}</style></defs><title>cards</title><g id="Layer_2" data-name="Layer 2"><g id="Layer_1-2" data-name="Layer 1"><path class="cls-1" d="M87.26,23.07H37.38a8.82,8.82,0,0,0-8.79,8.79V63.45a8.82,8.82,0,0,0,8.79,8.79H87.26A8.82,8.82,0,0,0,96,63.45V31.86A8.79,8.79,0,0,0,87.26,23.07Zm4.06,40.5a3.2,3.2,0,0,1-3.19,3.19H37.28a3.2,3.2,0,0,1-3.19-3.19V41.34H91.32Zm0-30.6H34.09V31.76a3.2,3.2,0,0,1,3.19-3.19H88.13a3.2,3.2,0,0,1,3.19,3.19Z"/><path class="cls-1" d="M36.74,17.64H67.68L61.39,4.9a8.81,8.81,0,0,0-11.8-4L4.9,23a8.81,8.81,0,0,0-4,11.8l14,28.33a8.81,8.81,0,0,0,10.19,4.59,13.23,13.23,0,0,1-1.86-6.79V31.14A13.51,13.51,0,0,1,36.74,17.64Z"/><path class="cls-1" d="M43.1,63.33a5.63,5.63,0,0,0,4.32-2,5.7,5.7,0,1,0,0-7.4,5.69,5.69,0,1,0-4.32,9.4Z"/></g></g></svg>