<svg xmlns="http://www.w3.org/2000/svg" viewBox="0 0 31.64 31.67"><defs><style>.cls-1{fill:#fff;}</style></defs><title>cogwheel</title><g id="Layer_2" data-name="Layer 2"><g id="Layer_1-2" data-name="Layer 1"><path class="cls-1" d="M31.63,14.55a16,16,0,0,0-.47-2.74,2,2,0,0,0-1.7-1.48L26.9,10,28.1,7.75a2,2,0,0,0-.25-2.24,15.91,15.91,0,0,0-2-2,2,2,0,0,0-2.25-.2L21.37,4.63,21,2.06A2,2,0,0,0,19.49.39,15.81,15.81,0,0,0,16.73,0h-.11A2,2,0,0,0,14.8,1.16L13.72,3.5l-1.8-1.86a2,2,0,0,0-2.21-.45A15.81,15.81,0,0,0,7.25,2.48a2,2,0,0,0-.88,2.07l.51,2.54L4.33,6.65a2,2,0,0,0-.35,0,2,2,0,0,0-1.71,1A15.88,15.88,0,0,0,1,10.07a2,2,0,0,0,.5,2.2L3.44,14,1.12,15.16a2,2,0,0,0-1.11,2,16,16,0,0,0,.47,2.74,2,2,0,0,0,1.7,1.48l2.57.3L3.53,23.92a2,2,0,0,0,.25,2.24,16.06,16.06,0,0,0,2,1.95A2,2,0,0,0,8,28.3L10.27,27l.36,2.57a2,2,0,0,0,1.52,1.67,16,16,0,0,0,2.75.39H15a2,2,0,0,0,1.82-1.16l1.08-2.34L19.71,30a2,2,0,0,0,2.2.46,15.77,15.77,0,0,0,2.47-1.28,2,2,0,0,0,.88-2.07l-.51-2.54,2.54.45a2,2,0,0,0,.35,0,2,2,0,0,0,1.71-1,15.89,15.89,0,0,0,1.23-2.5,2,2,0,0,0-.51-2.19l-1.89-1.75,2.32-1.14A2,2,0,0,0,31.63,14.55ZM26,16.5a10.19,10.19,0,0,1-.23,1.63l3,2.74a13.85,13.85,0,0,1-1.08,2.18l-4-.7a10,10,0,0,1-1.15,1.17l.79,4a13.81,13.81,0,0,1-2.16,1.12l-2.82-2.92a10.18,10.18,0,0,1-1.61.28L15,29.67a13.91,13.91,0,0,1-2.41-.34l-.57-4a10,10,0,0,1-1.47-.72L7,26.56a14,14,0,0,1-1.74-1.7l1.89-3.57a10.08,10.08,0,0,1-.76-1.46l-4-.48A14,14,0,0,1,2,17l3.65-1.78a10.34,10.34,0,0,1,.23-1.62l-3-2.74A13.83,13.83,0,0,1,4,8.62l4,.7A10.16,10.16,0,0,1,9.12,8.15l-.79-4A13.82,13.82,0,0,1,10.49,3L13.31,6a10.18,10.18,0,0,1,1.61-.28L16.62,2A13.69,13.69,0,0,1,19,2.34l.57,4a10.21,10.21,0,0,1,1.47.72l3.53-2a13.91,13.91,0,0,1,1.74,1.71l-1.89,3.57a10.16,10.16,0,0,1,.76,1.46l4,.48a14,14,0,0,1,.41,2.4Z"/><path class="cls-1" d="M15.82,9.78a6.05,6.05,0,1,0,6.05,6.05A6.05,6.05,0,0,0,15.82,9.78Zm0,11.1a5.05,5.05,0,1,1,5.05-5.05A5.06,5.06,0,0,1,15.82,20.89Z"/><path class="cls-1" d="M20.42,23.18a8.64,8.64,0,0,1-6.54,1.1.5.5,0,0,1,.22-1,7.68,7.68,0,0,0,9.19-5.75.5.5,0,1,1,1,.22A8.64,8.64,0,0,1,20.42,23.18Z"/><path class="cls-1" d="M17.91,8.3a.5.5,0,0,1-.38.06,7.68,7.68,0,0,0-9.19,5.75.5.5,0,1,1-1-.22,8.68,8.68,0,0,1,10.39-6.5.5.5,0,0,1,.15.91Z"/></g></g></svg>