<svg xmlns="http://www.w3.org/2000/svg" viewBox="0 0 57.48 76.92"><defs><style>.cls-1{fill:#5d8fcc;}</style></defs><title>currency</title><g id="Layer_2" data-name="Layer 2"><g id="Layer_1-2" data-name="Layer 1"><path class="cls-1" d="M29.08,27.36A10.91,10.91,0,1,0,40,38.27,10.91,10.91,0,0,0,29.08,27.36Zm3.13,15.21a3.53,3.53,0,0,1-1.83,1.17.51.51,0,0,0-.44.58c0,.31,0,.65,0,1a.39.39,0,0,1-.43.44q-.52,0-1,0c-.3,0-.44-.17-.46-.47v-.71c0-.52,0-.54-.52-.61a6.44,6.44,0,0,1-1.86-.54c-.46-.22-.5-.33-.38-.82s.2-.72.31-1.07.24-.46.61-.27a6.25,6.25,0,0,0,2.06.61,2.49,2.49,0,0,0,1.35-.17,1.05,1.05,0,0,0,.25-1.84,3.44,3.44,0,0,0-.77-.46A19.31,19.31,0,0,1,27,38.43a3,3,0,0,1-1.68-2.85,3.13,3.13,0,0,1,2.28-2.9c.57-.2.57-.19.57-.79v-.6c0-.44.09-.52.52-.54h.41c.94,0,.94,0,.94.94,0,.66,0,.66.66.77a6,6,0,0,1,1.46.44.43.43,0,0,1,.28.57c-.11.41-.22.82-.36,1.21s-.24.44-.61.25a4.66,4.66,0,0,0-2.31-.46,2,2,0,0,0-.61.13.88.88,0,0,0-.22,1.56,4.5,4.5,0,0,0,1,.57,15.89,15.89,0,0,1,1.83.83A3.28,3.28,0,0,1,32.22,42.57Z"/><circle class="cls-1" cx="44.96" cy="38.82" r="3.02"/><circle class="cls-1" cx="13.2" cy="38.82" r="3.02"/><path class="cls-1" d="M52.5,20.46H5a5,5,0,0,0-5,5V51.07a5,5,0,0,0,5,5H52.5a5,5,0,0,0,5-5V25.45A5,5,0,0,0,52.5,20.46Zm.74,25.84A5.38,5.38,0,0,0,52,46.15a5,5,0,0,0-5,5,4.24,4.24,0,0,0,0,.63H10.09a4.54,4.54,0,0,0,.09-.93,5,5,0,0,0-5-5,5.4,5.4,0,0,0-.88.08V30.62a5.4,5.4,0,0,0,.88.08,5,5,0,0,0,5-5,4.54,4.54,0,0,0-.09-.93h37A5.25,5.25,0,0,0,46.94,26a5,5,0,0,0,5,5,5.38,5.38,0,0,0,1.24-.16V46.3Z"/><path class="cls-1" d="M21.38,7.75l10.71,6.17a.84.84,0,0,0,1.26-.72V9.82H40a7.77,7.77,0,0,1,7.76,7.76H53.3A13.37,13.37,0,0,0,40,4.23H33.34V.84A.84.84,0,0,0,32.08.12L21.37,6.29A.86.86,0,0,0,21.38,7.75Z"/><path class="cls-1" d="M36.09,69.17,25.38,63a.84.84,0,0,0-1.26.72v3.39H17.51a7.77,7.77,0,0,1-7.76-7.76H4.17A13.37,13.37,0,0,0,17.53,72.7h6.61v3.39a.84.84,0,0,0,1.26.72l10.71-6.17A.86.86,0,0,0,36.09,69.17Z"/></g></g></svg>