<svg xmlns="http://www.w3.org/2000/svg" viewBox="0 0 64.2 66"><defs><style>.cls-1{fill:#5d8fcc;}</style></defs><title>exchange</title><g id="Layer_2" data-name="Layer 2"><g id="Layer_1-2" data-name="Layer 1"><g id="Layer_1-3" data-name="Layer 1"><path class="cls-1" d="M28.18,22.22a19.88,19.88,0,0,1,3.54-9.61,16,16,0,1,0-19,19.14A24.06,24.06,0,0,1,28.18,22.22ZM9.63,19.87a1,1,0,0,1,1-1H14v-.77l-.45-.77H10.66a1,1,0,0,1,0-2.07h1.62L8.78,9.47a2.32,2.32,0,0,1-.37-1.09,2.06,2.06,0,0,1,2.28-1.94,2,2,0,0,1,1.81,1.25L16,14.46,19.6,7.69a2,2,0,0,1,1.8-1.25,2.06,2.06,0,0,1,2.28,1.94,2.33,2.33,0,0,1-.37,1.09l-3.5,5.76h1.62a1,1,0,0,1,0,2.07H18.59l-.45.77v.77h3.29a1,1,0,0,1,0,2.07H18.14v2.63A2,2,0,0,1,16,25.65,2,2,0,0,1,14,23.53V20.9H10.66A1,1,0,0,1,9.63,19.87Z"/><path class="cls-1" d="M48.15,8A16.06,16.06,0,0,0,32.27,21.88a23.93,23.93,0,0,1,8.67,1.69,1.12,1.12,0,0,1,1.12-.67h.56a4.94,4.94,0,0,1-.79-2.84c0-3.29,2.92-5.6,6.66-5.6,4.65,0,6.9,2.49,6.9,4.56a1.79,1.79,0,0,1-2,1.86c-2.33,0-.9-3.24-4.48-3.24a2.78,2.78,0,0,0-3.05,2.65,5.82,5.82,0,0,0,.87,2.6h2.89c1.09,0,1.65.4,1.65,1.27s-.56,1.27-1.65,1.27h-2.1a1.68,1.68,0,0,1,.14.64,3.42,3.42,0,0,1-.27,1.27,24.19,24.19,0,0,1,2.43,2.34A10.48,10.48,0,0,0,52,30c.45,0,1.54-.29,2-.29a1.54,1.54,0,0,1,1.54,1.7c0,1.5-1.34,2.15-2.72,2.24A24.28,24.28,0,0,1,55,38.56,16,16,0,0,0,48.15,8Z"/><path class="cls-1" d="M33.16,47.85v6.57c2-.13,4.08-1.06,4.08-3.25S34.95,48.25,33.16,47.85Z"/><path class="cls-1" d="M27.45,40c0,1.66,1.23,2.62,3.71,3.12V37.17C28.91,37.24,27.45,38.57,27.45,40Z"/><path class="cls-1" d="M32.1,25.88A20.06,20.06,0,1,0,52.16,45.94,20.09,20.09,0,0,0,32.1,25.88ZM33.16,57.8v2.06a1,1,0,1,1-2,0V57.8c-5.6-.13-8.39-3.48-8.39-6.11a1.91,1.91,0,0,1,2.06-2.09c3.71,0,.83,4.58,6.34,4.81V47.49c-4.91-.89-7.89-3.05-7.89-6.73,0-4.51,3.75-6.83,7.89-7V32a1,1,0,1,1,2,0v1.77c2.58.07,7.89,1.69,7.89,4.94A2,2,0,0,1,39,40.79c-2.16,0-2.13-3.54-5.8-3.61v6.3c4.38.93,8.26,2.22,8.26,7.33C41.42,55.25,38.1,57.51,33.16,57.8Z"/></g></g></g></svg>