<svg xmlns="http://www.w3.org/2000/svg" viewBox="0 0 65.95 66"><defs><style>.cls-1{fill:none;}.cls-2{fill:#5d8fcc;}</style></defs><title>payments</title><g id="Layer_2" data-name="Layer 2"><g id="Layer_1-2" data-name="Layer 1"><path class="cls-1" d="M61.49,15.12v9.53a3.66,3.66,0,0,1-3.66,3.66H25.73a3.66,3.66,0,0,1-3.66-3.66V15.12Z"/><path class="cls-1" d="M61.49,8.08H22.08a3.66,3.66,0,0,1,3.65-3.62H57.84A3.66,3.66,0,0,1,61.49,8.08Z"/><path class="cls-1" d="M47.89,47v9.53a7.58,7.58,0,0,0-5,5H9.44a7.59,7.59,0,0,0-5-5V47a7.58,7.58,0,0,0,5-5H42.91A7.57,7.57,0,0,0,47.89,47ZM41.14,51.8a1.5,1.5,0,1,0-1.5,1.5A1.5,1.5,0,0,0,41.14,51.8Zm-6.75,0A8.21,8.21,0,1,0,26.17,60,8.22,8.22,0,0,0,34.39,51.8Zm-20.19,0a1.5,1.5,0,1,0-1.5,1.5A1.5,1.5,0,0,0,14.2,51.8Z"/><circle class="cls-1" cx="26.17" cy="51.8" r="3.76"/><path class="cls-2" d="M65.95,8.11V24.65a8.12,8.12,0,0,1-8.11,8.11H25.73a8.12,8.12,0,0,1-8.11-8.11V8.11A8.12,8.12,0,0,1,25.73,0H57.84A8.12,8.12,0,0,1,65.95,8.11ZM61.49,24.65V15.12H22.07v9.53a3.66,3.66,0,0,0,3.66,3.66H57.84A3.66,3.66,0,0,0,61.49,24.65ZM22.08,8.08H61.49a3.66,3.66,0,0,0-3.65-3.62H25.73A3.66,3.66,0,0,0,22.08,8.08Z"/><path class="cls-2" d="M65.94,40.38V58.76A2.23,2.23,0,0,1,63.71,61H56.36a2.23,2.23,0,0,1,0-4.46h5.12V40.38a2.23,2.23,0,0,1,4.46,0Z"/><path class="cls-2" d="M52.35,39.82V63.77A2.23,2.23,0,0,1,50.12,66H2.23A2.23,2.23,0,0,1,0,63.77V39.82A2.23,2.23,0,0,1,2.23,37.6H50.12A2.23,2.23,0,0,1,52.35,39.82ZM47.89,61.54V60a4.44,4.44,0,0,0-1.59,1.59Zm0-5V47a7.57,7.57,0,0,1-5-5H9.44a7.58,7.58,0,0,1-5,5v9.53a7.59,7.59,0,0,1,5,5H42.91A7.58,7.58,0,0,1,47.89,56.56Zm0-12.92V42.05H46.3A4.44,4.44,0,0,0,47.89,43.64ZM6,42.05H4.46v1.59A4.44,4.44,0,0,0,6,42.05ZM4.46,61.54H6A4.44,4.44,0,0,0,4.46,60Z"/><circle class="cls-2" cx="39.64" cy="51.8" r="1.5"/><path class="cls-2" d="M26.17,43.58A8.21,8.21,0,1,1,18,51.8,8.22,8.22,0,0,1,26.17,43.58Zm3.76,8.22a3.76,3.76,0,1,0-3.76,3.76A3.76,3.76,0,0,0,29.93,51.8Z"/><circle class="cls-2" cx="12.7" cy="51.8" r="1.5"/><path class="cls-2" d="M11,4.91a2.23,2.23,0,0,1,0,4.46H5.9V25.51a2.23,2.23,0,0,1-4.46,0V7.14A2.23,2.23,0,0,1,3.68,4.91Z"/></g></g></svg>