<svg xmlns="http://www.w3.org/2000/svg" viewBox="0 0 60.69 66"><defs><style>.cls-1{fill:#5d8fcc;}</style></defs><title>services</title><g id="Layer_2" data-name="Layer 2"><g id="Layer_1-2" data-name="Layer 1"><path class="cls-1" d="M57.88,34.63H55.83a21.87,21.87,0,0,0-7.57-10.1,2,2,0,0,0-.06-.39,7.41,7.41,0,0,1,1.25-6.31,1.6,1.6,0,0,0-1.62-2.41A12.77,12.77,0,0,0,41,18.11a6.56,6.56,0,0,0-1.74,2.24,19.63,19.63,0,0,1-6,10.89,22.1,22.1,0,0,1-15.22,5.92h0a22.74,22.74,0,0,1-9-1.85A14.22,14.22,0,0,1,3.8,36.8a18.32,18.32,0,0,0-.42,3.88A18.59,18.59,0,0,0,4,45.25H4a.22.22,0,0,0,0,.07,19.54,19.54,0,0,0,1.75,4.39,23.32,23.32,0,0,0,4.49,6.39,11.79,11.79,0,0,1,3.49,7.82v.73h0A1.5,1.5,0,0,0,15.21,66h9.25A1.47,1.47,0,0,0,26,64.57V62.41a32.79,32.79,0,0,0,7.34.09v2A1.47,1.47,0,0,0,34.85,66h9.27a1.47,1.47,0,0,0,1.52-1.43V62.4a8.35,8.35,0,0,1,3.14-6l.32-.26.09-.07h0a21.36,21.36,0,0,0,6.76-9.71h2a2.73,2.73,0,0,0,2.81-2.64V37.22A2.73,2.73,0,0,0,57.88,34.63Zm-11.59.47a2.16,2.16,0,1,1,2.29-2.16A2.24,2.24,0,0,1,46.29,35.1Z"/><path class="cls-1" d="M8.9,31.57a18.94,18.94,0,0,0,21.89-2.63,16.24,16.24,0,0,0,0-24A18.84,18.84,0,0,0,5.29,5a16.21,16.21,0,0,0-.76,23.21l.19.15A8.26,8.26,0,0,1,1,32.27a.65.65,0,0,0,.2,1.24,10.79,10.79,0,0,0,7.67-2Zm3.3-8.4c.14-.51.3-1,.47-1.55s.37-.67.95-.38a9.79,9.79,0,0,0,3.16.89,4.13,4.13,0,0,0,2.07-.26,1.48,1.48,0,0,0,.39-2.66,5.46,5.46,0,0,0-1.18-.65,27.94,27.94,0,0,1-3.23-1.36c-1.65-.93-2.7-2.21-2.58-4.1a4.56,4.56,0,0,1,3.51-4.18c.86-.3.86-.28.87-1.13V6.94c0-.63.13-.74.8-.77h.63c1.43,0,1.43,0,1.45,1.35,0,1,0,1,1,1.11a9.15,9.15,0,0,1,2.24.62.61.61,0,0,1,.43.82c-.19.58-.34,1.17-.55,1.75s-.37.62-.93.38a7.41,7.41,0,0,0-3.54-.66,2.8,2.8,0,0,0-.95.18A1.23,1.23,0,0,0,16.9,14a6.32,6.32,0,0,0,1.53.81,30,30,0,0,1,2.81,1.19c2.87,1.5,3.64,4.88,1.62,7.18a5.4,5.4,0,0,1-2.8,1.69c-.49.12-.7.36-.67.84s0,.93,0,1.39a.59.59,0,0,1-.66.65q-.8,0-1.59,0a.62.62,0,0,1-.69-.69c0-.34,0-.67,0-1,0-.74,0-.78-.8-.89a10.39,10.39,0,0,1-2.84-.77C12.07,24,12,23.87,12.2,23.17Z"/></g></g></svg>