<svg xmlns="http://www.w3.org/2000/svg" viewBox="0 0 1524.15 680.56"><defs><style>.a{isolation:isolate;}.b{fill:#1e1c33;}.c{opacity:0.66;mix-blend-mode:luminosity;}.d,.f{fill:none;stroke:#efea48;stroke-linecap:round;stroke-miterlimit:10;}.d{stroke-width:3.46px;}.e{fill:#efea48;}.f{stroke-width:7px;}</style></defs><title>mapOfMe</title><g class="a"><rect class="b" width="1524.15" height="680.56"/><g class="c"><polyline class="d" points="485.04 586.45 496.96 598.38 498.09 599.52 498.09 603.69 498.09 620.34"/><polyline class="d" points="480.72 590.78 492.04 602.11 492.04 603.3 492.04 603.69 492.04 620.34"/><rect class="e" x="195.44" y="402.97" width="109.59" height="109.59" transform="translate(396.98 -42.87) rotate(45)"/><rect class="f" x="187.87" y="395.4" width="124.73" height="124.73" transform="translate(396.98 -42.87) rotate(45)"/><polyline class="d" points="-0.18 623.13 156.96 623.13 243.32 536.68"/><polyline class="d" points="-0.18 617.08 154.36 617.08 239.01 532.35"/><polyline class="d" points="-0.18 611.89 151.77 611.89 234.74 528.84"/><polyline class="d" points="-0.18 605.84 149.18 605.84 230.47 524.46"/><polyline class="d" points="-0.18 599.79 146.58 599.79 226.2 520.08"/><polyline class="d" points="-0.18 593.73 143.99 593.73 221.93 515.7"/><polyline class="d" points="-0.18 587.68 141.39 587.68 217.66 511.33"/><polyline class="d" points="-0.18 581.63 138.8 581.63 213.39 506.95"/><polyline class="d" points="-0.18 575.58 136.21 575.58 209.12 502.57"/><polyline class="d" points="-0.18 569.52 133.61 569.52 204.85 498.19"/><polyline class="d" points="-0.18 564.33 131.02 564.33 200.58 494.68"/><polyline class="d" points="-0.18 558.28 128.42 558.28 196.31 490.3"/><polyline class="d" points="-0.18 552.23 125.83 552.23 192.04 485.93"/><polyline class="d" points="-0.18 546.17 123.23 546.17 187.77 481.55"/><polyline class="d" points="0 539.88 120.64 540.13 183.59 477.18"/><polyline class="d" points="-0.18 534.07 118.05 534.07 179.24 472.79"/><polyline class="d" points="-0.18 528.02 115.45 528.02 174.97 468.42"/><polyline class="d" points="-0.18 521.96 112.86 521.96 170.7 464.04"/><polyline class="d" points="439 623.13 344.04 623.13 257.67 536.68"/><polyline class="d" points="439 617.08 346.63 617.08 261.99 532.35"/><polyline class="d" points="439 611.89 349.23 611.89 266.25 528.84"/><polyline class="d" points="439 605.84 351.82 605.84 270.52 524.46"/><polyline class="d" points="439 599.79 354.42 599.79 274.79 520.08"/><polyline class="d" points="439 593.73 357.01 593.73 279.06 515.7"/><polyline class="d" points="439 587.68 359.6 587.68 283.33 511.33"/><polyline class="d" points="465.8 581.63 362.2 581.63 287.57 506.95"/><polyline class="d" points="459.75 575.58 364.79 575.58 291.94 502.57"/><polyline class="d" points="453.7 569.52 367.39 569.52 296 498.19"/><polyline class="d" points="447.65 564.33 369.98 564.33 300.22 494.68"/><polyline class="d" points="446.78 558.28 372.57 558.28 304.63 490.3"/><polyline class="d" points="452.83 552.23 375.17 552.23 308.86 485.93"/><polyline class="d" points="458.89 546.17 377.76 546.17 313.19 481.55"/><polyline class="d" points="464.73 539.88 380.36 540.13 317.4 477.18"/><polyline class="d" points="470.99 534.07 382.95 534.07 321.83 472.79"/><polyline class="d" points="476.18 528.02 385.55 528.02 326.09 468.42"/><polyline class="d" points="401.82 521.96 388.14 521.96 330.08 464.04"/><polyline class="d" points="-0.09 291.09 156.96 291.09 243.32 377.54"/><polyline class="d" points="-0.09 297.14 154.36 297.14 239.01 381.87"/><polyline class="d" points="-0.09 303.19 151.77 303.19 234.74 386.25"/><polyline class="d" points="-0.09 309.25 149.18 309.25 230.47 390.63"/><polyline class="d" points="-0.09 315.3 146.58 315.3 226.2 395"/><polyline class="d" points="-0.09 321.35 143.99 321.35 221.93 399.38"/><polyline class="d" points="-0.09 327.41 141.39 327.41 217.66 403.76"/><polyline class="d" points="-0.09 333.46 138.8 333.46 213.39 408.14"/><polyline class="d" points="-0.09 338.65 136.21 338.65 209.12 411.65"/><polyline class="d" points="-0.09 344.7 133.61 344.7 204.85 416.03"/><polyline class="d" points="-0.09 350.75 131.02 350.75 200.58 420.41"/><polyline class="d" points="-0.09 356.81 128.42 356.81 196.31 424.78"/><polyline class="d" points="-0.09 362.86 125.83 362.86 192.04 429.16"/><polyline class="d" points="-0.09 368.91 123.23 368.91 187.77 433.54"/><polyline class="d" points="0.09 374.91 120.64 374.66 183.59 437.61"/><polyline class="d" points="-0.09 381.02 118.05 381.02 179.24 442.29"/><polyline class="d" points="-0.09 386.2 115.45 386.2 174.97 445.81"/><polyline class="d" points="-0.09 392.26 112.86 392.26 170.7 450.18"/><polyline class="d" points="257.59 377.71 344.04 291.09 438.83 291.09 478.32 251.68"/><polyline class="d" points="261.79 381.87 346.63 297.14 438.83 297.14 510.77 297.14"/><polyline class="d" points="266.17 386.31 349.23 303.19 438.83 303.19 515.96 303.19 532.39 303.19 578.28 257.33"/><polyline class="d" points="479.81 309.25 351.82 309.25 270.24 390.63"/><polyline class="d" points="473.02 315.3 466.97 321.35 460.92 327.41 455.25 333.07 449.67 338.65 446.79 341.54 479.81 374.55 512.82 341.54 509.94 338.65 504.36 333.07 498.7 327.41 492.65 321.35 486.6 315.3"/><polyline class="d" points="274.58 395.01 354.42 315.3 473.02 315.3"/><line class="d" x1="519.35" y1="315.3" x2="486.6" y2="315.3"/><line class="d" x1="534.59" y1="321.35" x2="492.65" y2="321.35"/><polyline class="d" points="279.1 399.38 357.01 321.35 466.97 321.35"/><polyline class="d" points="283.38 403.76 359.61 327.41 460.92 327.41"/><line class="d" x1="549.32" y1="327.41" x2="498.7" y2="327.41"/><polyline class="d" points="287.4 407.75 362.2 333.07 455.25 333.07"/><line class="d" x1="561.11" y1="333.07" x2="504.36" y2="333.07"/><line class="d" x1="535.6" y1="338.65" x2="509.93" y2="338.65"/><line class="d" x1="555.92" y1="338.65" x2="550.47" y2="338.65"/><polyline class="d" points="291.81 411.65 364.8 338.65 449.67 338.65"/><polyline class="d" points="296.14 416.03 367.39 344.7 449.95 344.7"/><line class="d" x1="529.55" y1="344.7" x2="509.66" y2="344.7"/><line class="d" x1="583.93" y1="344.7" x2="556.53" y2="344.7"/><polyline class="d" points="300.41 420.4 369.98 350.75 456 350.75"/><line class="d" x1="523.5" y1="350.75" x2="503.61" y2="350.75"/><polyline class="d" points="304.68 424.78 372.58 356.81 462.06 356.81"/><line class="d" x1="517.45" y1="356.81" x2="497.55" y2="356.81"/><line class="d" x1="593.17" y1="356.81" x2="568.63" y2="356.81"/><polyline class="d" points="308.95 429.16 375.17 362.86 468.12 362.86"/><line class="d" x1="511.4" y1="362.86" x2="491.5" y2="362.86"/><line class="d" x1="593.96" y1="362.86" x2="574.68" y2="362.86"/><polyline class="d" points="313.22 433.54 377.76 368.91 474.17 368.91"/><line class="d" x1="514.7" y1="368.91" x2="485.45" y2="368.91"/><line class="d" x1="593.96" y1="368.91" x2="571.38" y2="368.91"/><polyline class="d" points="317.4 437.61 380.36 374.66 520.61 374.83"/><polyline class="d" points="321.76 441.43 382.95 380.15 525.94 380.15"/><line class="d" x1="587.39" y1="380.15" x2="560.14" y2="380.15"/><polyline class="d" points="325.94 445.98 385.55 386.2 438.83 386.2 509.04 386.2 549.33 426.58"/><polyline class="d" points="330.21 450.3 388.14 392.26 438.83 392.26 502.99 392.26 543.04 432.37"/><polyline class="d" points="473.02 315.3 479.81 308.51 486.6 315.3"/><rect class="e" x="460.03" y="321.76" width="39.54" height="39.54" transform="translate(382.03 -239.24) rotate(45)"/><path d="M471,336.73v8.59H469.3v-3.67h-3.9v3.67h-1.67v-8.59h1.67v3.47h3.9v-3.47Z"/><path d="M479.18,338.19h-2.75v7.13h-1.66v-7.13H472v-1.46h7.15Z"/><path d="M487.26,345.32v-5.69L485,343.87h-.91l-2.22-4.24v5.69h-1.67v-8.59H482l2.54,4.89,2.57-4.89h1.78v8.59Z"/><path d="M490.72,345.32v-8.59h1.67v7.13h4.38v1.46Z"/><rect class="d" x="519.69" y="340.88" width="46.69" height="46.69" transform="translate(416.6 -277.3) rotate(45)"/><rect class="e" x="523.27" y="344.46" width="39.54" height="39.54" transform="translate(416.6 -277.3) rotate(45)"/><path d="M531.84,363.66a4.44,4.44,0,0,1,.28-1.56,4.17,4.17,0,0,1,2.16-2.35,4.11,4.11,0,0,1,1.79-.38,3.91,3.91,0,0,1,2.05.52,3.33,3.33,0,0,1,1.29,1.36l-1.28.88a2.19,2.19,0,0,0-.41-.61,2.06,2.06,0,0,0-.52-.39,2.34,2.34,0,0,0-.58-.21,2.79,2.79,0,0,0-.59-.07,2.26,2.26,0,0,0-1.1.25,2.41,2.41,0,0,0-.77.66,2.9,2.9,0,0,0-.47.92,3.48,3.48,0,0,0-.16,1,3.33,3.33,0,0,0,.18,1.1,2.92,2.92,0,0,0,.51.93,2.58,2.58,0,0,0,.8.64,2.19,2.19,0,0,0,1,.24,2.66,2.66,0,0,0,.61-.07,2.3,2.3,0,0,0,.6-.23,2.28,2.28,0,0,0,.53-.41,1.87,1.87,0,0,0,.39-.6l1.37.79a2.59,2.59,0,0,1-.59.85,3.8,3.8,0,0,1-.86.62,4.38,4.38,0,0,1-1,.39,4.48,4.48,0,0,1-1.07.13,3.67,3.67,0,0,1-1.68-.39,4.37,4.37,0,0,1-1.31-1,4.68,4.68,0,0,1-.86-1.42A4.42,4.42,0,0,1,531.84,363.66Z"/><path d="M545.79,361.68a2,2,0,0,0-.31-.23,3.75,3.75,0,0,0-.54-.28,4.76,4.76,0,0,0-.7-.24,3.06,3.06,0,0,0-.76-.1,1.71,1.71,0,0,0-1,.25.84.84,0,0,0-.34.71.73.73,0,0,0,.13.44,1.1,1.1,0,0,0,.37.31,3.06,3.06,0,0,0,.61.24l.85.23q.63.17,1.14.36a3.11,3.11,0,0,1,.87.48,2,2,0,0,1,.55.7,2.31,2.31,0,0,1,.19,1,2.49,2.49,0,0,1-.26,1.18,2.19,2.19,0,0,1-.7.79,3.05,3.05,0,0,1-1,.44,5.1,5.1,0,0,1-1.2.14,6.48,6.48,0,0,1-1.91-.29A5.91,5.91,0,0,1,540,367l.74-1.44a2.29,2.29,0,0,0,.39.28,6,6,0,0,0,.67.35,5.29,5.29,0,0,0,.86.3,3.86,3.86,0,0,0,1,.12q1.38,0,1.38-.88a.73.73,0,0,0-.16-.47,1.34,1.34,0,0,0-.45-.34,4.29,4.29,0,0,0-.7-.27l-.92-.27a7.7,7.7,0,0,1-1.07-.37,2.8,2.8,0,0,1-.76-.47,1.76,1.76,0,0,1-.45-.63,2.17,2.17,0,0,1-.15-.85,2.67,2.67,0,0,1,.24-1.16,2.35,2.35,0,0,1,.67-.85,3.06,3.06,0,0,1,1-.51,4.12,4.12,0,0,1,1.22-.18,4.74,4.74,0,0,1,1.67.28,6.24,6.24,0,0,1,1.33.67Z"/><path d="M553.21,361.68a2.05,2.05,0,0,0-.31-.23,3.75,3.75,0,0,0-.54-.28,4.78,4.78,0,0,0-.7-.24,3.05,3.05,0,0,0-.76-.1,1.71,1.71,0,0,0-1,.25.84.84,0,0,0-.34.71.73.73,0,0,0,.13.44,1.1,1.1,0,0,0,.37.31,3,3,0,0,0,.61.24l.85.23q.63.17,1.14.36a3.11,3.11,0,0,1,.87.48,2,2,0,0,1,.55.7,2.31,2.31,0,0,1,.19,1,2.49,2.49,0,0,1-.26,1.18,2.19,2.19,0,0,1-.7.79,3.05,3.05,0,0,1-1,.44,5.1,5.1,0,0,1-1.2.14,6.48,6.48,0,0,1-1.91-.29,5.91,5.91,0,0,1-1.69-.82l.74-1.44a2.29,2.29,0,0,0,.39.28,6,6,0,0,0,.67.35,5.29,5.29,0,0,0,.86.3,3.86,3.86,0,0,0,1,.12q1.38,0,1.38-.88a.73.73,0,0,0-.16-.47,1.34,1.34,0,0,0-.45-.34,4.29,4.29,0,0,0-.7-.27l-.92-.27a7.7,7.7,0,0,1-1.07-.37,2.8,2.8,0,0,1-.76-.47,1.76,1.76,0,0,1-.45-.63,2.17,2.17,0,0,1-.15-.85,2.67,2.67,0,0,1,.24-1.16,2.35,2.35,0,0,1,.67-.85,3.06,3.06,0,0,1,1-.51,4.11,4.11,0,0,1,1.22-.18,4.74,4.74,0,0,1,1.67.28,6.25,6.25,0,0,1,1.33.67Z"/><rect class="d" x="454.08" y="537.1" width="46.69" height="46.69" transform="translate(536.13 -173.44) rotate(45)"/><rect class="e" x="457.66" y="540.68" width="39.54" height="39.54" transform="translate(536.13 -173.44) rotate(45)"/><path d="M466.76,563.94a4.33,4.33,0,0,0,1,.46,4.59,4.59,0,0,0,1.58.25,2.76,2.76,0,0,0,1.39-.3,1.9,1.9,0,0,0,.79-.92,5,5,0,0,0,.35-1.55q.08-.92.08-2.17v-7.49h2.86v7.49a24.31,24.31,0,0,1-.18,3.06,6.18,6.18,0,0,1-.75,2.36,3.86,3.86,0,0,1-1.65,1.51,6.57,6.57,0,0,1-2.91.54,5.5,5.5,0,0,1-3.2-.91Z"/><path d="M486.48,556.07a3.63,3.63,0,0,0-.53-.39,6.48,6.48,0,0,0-.93-.49,8.08,8.08,0,0,0-1.19-.4,5.21,5.21,0,0,0-1.31-.17,2.93,2.93,0,0,0-1.76.44,1.44,1.44,0,0,0-.58,1.22,1.26,1.26,0,0,0,.22.76,1.88,1.88,0,0,0,.63.53,5.3,5.3,0,0,0,1,.41q.63.19,1.46.39,1.08.29,2,.62a5.3,5.3,0,0,1,1.49.83,3.43,3.43,0,0,1,.94,1.19,4,4,0,0,1,.33,1.71,4.26,4.26,0,0,1-.45,2,3.74,3.74,0,0,1-1.2,1.36,5.22,5.22,0,0,1-1.74.76,8.76,8.76,0,0,1-2.06.24,11.1,11.1,0,0,1-3.28-.5,10.12,10.12,0,0,1-2.91-1.41l1.27-2.47a3.94,3.94,0,0,0,.67.49,10.29,10.29,0,0,0,1.15.6,9,9,0,0,0,1.47.51,6.65,6.65,0,0,0,1.66.21q2.37,0,2.37-1.51a1.24,1.24,0,0,0-.27-.81,2.28,2.28,0,0,0-.77-.58,7.36,7.36,0,0,0-1.2-.46l-1.58-.46a13.42,13.42,0,0,1-1.84-.63,4.82,4.82,0,0,1-1.3-.81,3,3,0,0,1-.78-1.08,3.73,3.73,0,0,1-.26-1.46,4.57,4.57,0,0,1,.42-2,4,4,0,0,1,1.15-1.45,5.21,5.21,0,0,1,1.71-.88,7.06,7.06,0,0,1,2.1-.3,8.13,8.13,0,0,1,2.86.49,10.69,10.69,0,0,1,2.28,1.15Z"/><rect class="d" x="523.74" y="514.18" width="42.37" height="19.02"/><rect class="e" x="528.06" y="517.64" width="33.72" height="12.11"/><path d="M540.3,526.18v1.46h-6V519h5.86v1.46H536v2.07h3.62v1.36H536v2.24Z"/><path d="M546.54,521.3a2,2,0,0,0-.31-.23,3.75,3.75,0,0,0-.54-.28,4.76,4.76,0,0,0-.7-.24,3.06,3.06,0,0,0-.76-.1,1.71,1.71,0,0,0-1,.25.84.84,0,0,0-.34.71.73.73,0,0,0,.13.44,1.1,1.1,0,0,0,.37.31,3.06,3.06,0,0,0,.61.24l.85.23q.63.17,1.14.36a3.11,3.11,0,0,1,.87.48,2,2,0,0,1,.55.7,2.31,2.31,0,0,1,.19,1,2.49,2.49,0,0,1-.26,1.18,2.19,2.19,0,0,1-.7.79,3.05,3.05,0,0,1-1,.44,5.1,5.1,0,0,1-1.2.14,6.48,6.48,0,0,1-1.91-.29,5.91,5.91,0,0,1-1.69-.82l.74-1.44a2.29,2.29,0,0,0,.39.28,6,6,0,0,0,.67.35,5.29,5.29,0,0,0,.86.3,3.86,3.86,0,0,0,1,.12q1.38,0,1.38-.88a.73.73,0,0,0-.16-.47,1.34,1.34,0,0,0-.45-.34,4.29,4.29,0,0,0-.7-.27l-.92-.27a7.7,7.7,0,0,1-1.07-.37,2.8,2.8,0,0,1-.76-.47,1.76,1.76,0,0,1-.45-.63,2.17,2.17,0,0,1-.15-.85,2.67,2.67,0,0,1,.24-1.16,2.35,2.35,0,0,1,.67-.85,3.06,3.06,0,0,1,1-.51,4.12,4.12,0,0,1,1.22-.18,4.74,4.74,0,0,1,1.67.28,6.24,6.24,0,0,1,1.33.67Z"/><path d="M554.81,524.77a2.86,2.86,0,0,1-.24,1.17,3,3,0,0,1-.67,1,3.08,3.08,0,0,1-1,.64,3.3,3.3,0,0,1-1.24.23,3.15,3.15,0,0,1-1.31-.27,2.71,2.71,0,0,1-1-.77,3.56,3.56,0,0,1-.63-1.24,5.84,5.84,0,0,1-.22-1.66,8.43,8.43,0,0,1,.23-2.08,4.51,4.51,0,0,1,.67-1.51,2.91,2.91,0,0,1,1.05-.93,3,3,0,0,1,1.38-.31,3.19,3.19,0,0,1,2.65,1.36l-.93,1a2.06,2.06,0,0,0-.75-.71,2,2,0,0,0-1-.25,1.54,1.54,0,0,0-1.3.64,3.07,3.07,0,0,0-.51,1.82,1.83,1.83,0,0,1,.72-.69,2.23,2.23,0,0,1,1.08-.25,3.18,3.18,0,0,1,1.18.22,2.93,2.93,0,0,1,1,.61,2.81,2.81,0,0,1,.87,2Zm-3.14,1.62a1.5,1.5,0,0,0,.61-.13,1.59,1.59,0,0,0,.51-.35,1.68,1.68,0,0,0,.34-.52,1.56,1.56,0,0,0,.13-.62,1.47,1.47,0,0,0-.13-.61,1.65,1.65,0,0,0-.34-.5,1.59,1.59,0,0,0-.5-.34,1.55,1.55,0,0,0-.61-.12,1.6,1.6,0,0,0-.62.12,1.57,1.57,0,0,0-.85.84,1.54,1.54,0,0,0-.12.61,1.57,1.57,0,0,0,.13.62,1.63,1.63,0,0,0,.35.51,1.75,1.75,0,0,0,.5.35A1.42,1.42,0,0,0,551.68,526.4Z"/><rect class="d" x="483.96" y="482.19" width="57.93" height="24.21"/><rect class="e" x="488.29" y="485.65" width="50.15" height="17.29"/><path d="M494.17,500.42a2.7,2.7,0,0,1-.87-.14,2.13,2.13,0,0,1-.74-.43l.7-1.1a.85.85,0,0,0,.33.2,1.2,1.2,0,0,0,.39.07.76.76,0,0,0,.55-.22.77.77,0,0,0,.23-.58v-6.51h1.62v6.39a2.54,2.54,0,0,1-.17.94,2.25,2.25,0,0,1-.47.74,2.08,2.08,0,0,1-.7.48A2.22,2.22,0,0,1,494.17,500.42Zm.58-9.6v-1.61h1.62v1.61Z"/><path d="M503.86,497.49a4.25,4.25,0,0,1-1,.45,4,4,0,0,1-1.16.16,3.86,3.86,0,0,1-1.71-.37,4.33,4.33,0,0,1-1.32-1,4.37,4.37,0,0,1-.85-1.39,4.45,4.45,0,0,1-.3-1.61,4.31,4.31,0,0,1,.32-1.65,4.54,4.54,0,0,1,.88-1.39,4.21,4.21,0,0,1,1.34-1,4,4,0,0,1,1.68-.36,3.78,3.78,0,0,1,1.7.38,4.24,4.24,0,0,1,1.31,1,4.6,4.6,0,0,1,.85,1.4,4.43,4.43,0,0,1,.3,1.6,4.43,4.43,0,0,1-1.13,3l1.17,1.32h-1.57Zm-2.17-.86a2.26,2.26,0,0,0,.61-.08,2.39,2.39,0,0,0,.53-.21l-1.31-1.48h1.57l.59.67a3.38,3.38,0,0,0,.33-2.86,3,3,0,0,0-.5-.92,2.45,2.45,0,0,0-.79-.64,2.24,2.24,0,0,0-1-.24,2.29,2.29,0,0,0-1.08.25,2.36,2.36,0,0,0-.79.66,3,3,0,0,0-.48.93,3.48,3.48,0,0,0,0,2.12,2.87,2.87,0,0,0,.49.92,2.44,2.44,0,0,0,.79.64A2.27,2.27,0,0,0,501.69,496.63Z"/><path d="M508.93,498.17a1.8,1.8,0,0,1-1.49-.63,2.92,2.92,0,0,1-.51-1.86v-4h1.62v3.62q0,1.47,1.05,1.47a1.66,1.66,0,0,0,.91-.28,2,2,0,0,0,.72-.87v-3.93h1.62v4.48a.57.57,0,0,0,.09.36.4.4,0,0,0,.3.12V498l-.41.06h-.3a1.17,1.17,0,0,1-.71-.2.79.79,0,0,1-.32-.55l0-.51a2.7,2.7,0,0,1-1.09,1A3.28,3.28,0,0,1,508.93,498.17Z"/><path d="M517.42,498.17a3.53,3.53,0,0,1-1.38-.26,3.17,3.17,0,0,1-1.05-.71,3.14,3.14,0,0,1-.67-1,3.34,3.34,0,0,1-.24-1.25,3.53,3.53,0,0,1,.23-1.28,3.1,3.1,0,0,1,.67-1.05,3.18,3.18,0,0,1,1.06-.72,3.53,3.53,0,0,1,1.4-.27,3.44,3.44,0,0,1,1.39.27,3.18,3.18,0,0,1,1,.71,3,3,0,0,1,.65,1,3.47,3.47,0,0,1,.22,1.23c0,.1,0,.21,0,.3a1.25,1.25,0,0,1,0,.24h-4.9a1.89,1.89,0,0,0,.18.67,1.65,1.65,0,0,0,.38.5,1.63,1.63,0,0,0,.52.31,1.71,1.71,0,0,0,.61.11,1.87,1.87,0,0,0,.91-.24,1.25,1.25,0,0,0,.59-.62l1.39.39a2.83,2.83,0,0,1-1.12,1.19A3.47,3.47,0,0,1,517.42,498.17Zm1.65-3.83a1.69,1.69,0,0,0-.53-1.14,1.61,1.61,0,0,0-1.13-.43,1.63,1.63,0,0,0-.61.11,1.6,1.6,0,0,0-.5.32,1.67,1.67,0,0,0-.36.5,1.75,1.75,0,0,0-.16.64Z"/><path d="M525.5,493.11a3.19,3.19,0,0,0-1.32.28,1.66,1.66,0,0,0-.84.82V498h-1.62v-6.34h1.49v1.36a2.88,2.88,0,0,1,.4-.59,3.11,3.11,0,0,1,.5-.45,2.36,2.36,0,0,1,.54-.3,1.49,1.49,0,0,1,.53-.1h.33Z"/><path d="M526.54,499.28l.4.09.33,0a.71.71,0,0,0,.29-.06.63.63,0,0,0,.24-.21,2.09,2.09,0,0,0,.22-.42q.11-.27.23-.67l-2.51-6.34h1.67l1.72,4.94,1.53-4.94h1.53l-2.66,7.6a2.28,2.28,0,0,1-.79,1.09,2.22,2.22,0,0,1-1.38.42l-.39,0a2.55,2.55,0,0,1-.42-.1Z"/><rect class="d" x="583.93" y="325.84" width="49.31" height="19.89"/><rect class="e" x="587.39" y="329.55" width="42.39" height="12.47"/><path d="M599.46,333.93a2,2,0,0,0-.31-.23,3.75,3.75,0,0,0-.54-.28,4.73,4.73,0,0,0-.7-.24,3.06,3.06,0,0,0-.76-.1,1.71,1.71,0,0,0-1,.25.84.84,0,0,0-.34.71.74.74,0,0,0,.13.44,1.1,1.1,0,0,0,.37.31,3.07,3.07,0,0,0,.61.24l.85.23q.63.17,1.14.36a3.11,3.11,0,0,1,.87.48,2,2,0,0,1,.55.7,2.31,2.31,0,0,1,.19,1,2.48,2.48,0,0,1-.26,1.18,2.18,2.18,0,0,1-.7.79,3.05,3.05,0,0,1-1,.44,5.1,5.1,0,0,1-1.21.14,6.48,6.48,0,0,1-1.91-.29,5.92,5.92,0,0,1-1.69-.82l.74-1.44a2.29,2.29,0,0,0,.39.28,5.94,5.94,0,0,0,.67.35,5.31,5.31,0,0,0,.86.3,3.87,3.87,0,0,0,1,.12q1.38,0,1.38-.88a.73.73,0,0,0-.16-.47,1.33,1.33,0,0,0-.45-.34,4.28,4.28,0,0,0-.7-.27l-.92-.27a7.69,7.69,0,0,1-1.07-.37,2.78,2.78,0,0,1-.76-.47,1.76,1.76,0,0,1-.45-.63,2.17,2.17,0,0,1-.15-.85,2.66,2.66,0,0,1,.24-1.16,2.35,2.35,0,0,1,.67-.85,3.06,3.06,0,0,1,1-.51,4.12,4.12,0,0,1,1.22-.18,4.73,4.73,0,0,1,1.67.28,6.23,6.23,0,0,1,1.33.67Z"/><path d="M604.06,331.68h1.48l3.27,8.59h-1.72l-.8-2.14h-3l-.79,2.14h-1.72ZM606,337l-1.19-3.38L603.56,337Z"/><path d="M614.73,333.93a2.05,2.05,0,0,0-.31-.23,3.75,3.75,0,0,0-.54-.28,4.78,4.78,0,0,0-.7-.24,3.05,3.05,0,0,0-.76-.1,1.71,1.71,0,0,0-1,.25.84.84,0,0,0-.34.71.73.73,0,0,0,.13.44,1.1,1.1,0,0,0,.37.31,3,3,0,0,0,.61.24l.85.23q.63.17,1.14.36a3.11,3.11,0,0,1,.87.48,2,2,0,0,1,.55.7,2.31,2.31,0,0,1,.19,1,2.49,2.49,0,0,1-.26,1.18,2.19,2.19,0,0,1-.7.79,3.05,3.05,0,0,1-1,.44,5.1,5.1,0,0,1-1.2.14,6.48,6.48,0,0,1-1.91-.29,5.9,5.9,0,0,1-1.69-.82l.74-1.44a2.29,2.29,0,0,0,.39.28,6,6,0,0,0,.67.35,5.28,5.28,0,0,0,.86.3,3.86,3.86,0,0,0,1,.12q1.38,0,1.38-.88a.73.73,0,0,0-.16-.47,1.34,1.34,0,0,0-.45-.34,4.29,4.29,0,0,0-.7-.27l-.92-.27a7.7,7.7,0,0,1-1.07-.37,2.81,2.81,0,0,1-.76-.47,1.76,1.76,0,0,1-.45-.63,2.17,2.17,0,0,1-.15-.85,2.67,2.67,0,0,1,.24-1.16,2.34,2.34,0,0,1,.67-.85,3.06,3.06,0,0,1,1-.51,4.12,4.12,0,0,1,1.22-.18,4.74,4.74,0,0,1,1.67.28,6.25,6.25,0,0,1,1.33.67Z"/><path d="M622.15,333.93a2.05,2.05,0,0,0-.31-.23,3.75,3.75,0,0,0-.54-.28,4.78,4.78,0,0,0-.7-.24,3.05,3.05,0,0,0-.76-.1,1.71,1.71,0,0,0-1,.25.84.84,0,0,0-.34.71.73.73,0,0,0,.13.44,1.1,1.1,0,0,0,.37.31,3,3,0,0,0,.61.24l.85.23q.63.17,1.14.36a3.11,3.11,0,0,1,.87.48,2,2,0,0,1,.55.7,2.31,2.31,0,0,1,.19,1,2.49,2.49,0,0,1-.26,1.18,2.19,2.19,0,0,1-.7.79,3.05,3.05,0,0,1-1,.44,5.1,5.1,0,0,1-1.2.14,6.48,6.48,0,0,1-1.91-.29,5.9,5.9,0,0,1-1.69-.82l.74-1.44a2.29,2.29,0,0,0,.39.28,6,6,0,0,0,.67.35,5.28,5.28,0,0,0,.86.3,3.86,3.86,0,0,0,1,.12q1.38,0,1.38-.88a.73.73,0,0,0-.16-.47,1.34,1.34,0,0,0-.45-.34,4.29,4.29,0,0,0-.7-.27l-.92-.27a7.7,7.7,0,0,1-1.07-.37,2.81,2.81,0,0,1-.76-.47,1.76,1.76,0,0,1-.45-.63,2.17,2.17,0,0,1-.15-.85,2.67,2.67,0,0,1,.24-1.16,2.34,2.34,0,0,1,.67-.85,3.06,3.06,0,0,1,1-.51,4.12,4.12,0,0,1,1.22-.18,4.74,4.74,0,0,1,1.67.28,6.25,6.25,0,0,1,1.33.67Z"/><rect class="d" x="523.74" y="564.33" width="68.31" height="19.02"/><rect class="e" x="528.06" y="567.79" width="59.66" height="12.11"/><path d="M534.46,569.42H536l1,2.84,1-2.84h1.55L538,573.33l1.09,2.75,2.43-6.68h1.82l-3.5,8.59h-1.4L537,574.39,535.48,578h-1.4l-3.47-8.59h1.79l2.45,6.68,1.07-2.75Z"/><path d="M546.26,578.12a3.51,3.51,0,0,1-1.38-.26,3.11,3.11,0,0,1-1.73-1.75,3.34,3.34,0,0,1-.24-1.25,3.52,3.52,0,0,1,.23-1.28,3.1,3.1,0,0,1,.67-1.05,3.17,3.17,0,0,1,1.06-.72,3.52,3.52,0,0,1,1.4-.27,3.43,3.43,0,0,1,1.39.27,3.19,3.19,0,0,1,1,.71,3,3,0,0,1,.65,1,3.48,3.48,0,0,1,.22,1.24c0,.1,0,.21,0,.3a1.26,1.26,0,0,1,0,.24h-4.9a1.89,1.89,0,0,0,.18.67,1.63,1.63,0,0,0,.9.81,1.71,1.71,0,0,0,.61.11,1.87,1.87,0,0,0,.91-.24,1.25,1.25,0,0,0,.59-.62l1.39.39a2.83,2.83,0,0,1-1.12,1.19A3.47,3.47,0,0,1,546.26,578.12Zm1.65-3.83a1.69,1.69,0,0,0-.53-1.14,1.7,1.7,0,0,0-1.74-.31,1.59,1.59,0,0,0-.5.32,1.65,1.65,0,0,0-.36.5,1.74,1.74,0,0,0-.16.64Z"/><path d="M554.17,578.12a2.55,2.55,0,0,1-1.3-.33,2.39,2.39,0,0,1-.9-.9V578h-1.42v-8.84h1.62v3.61a2.44,2.44,0,0,1,.89-.9,2.52,2.52,0,0,1,1.29-.32,2.38,2.38,0,0,1,1.13.27,2.83,2.83,0,0,1,.88.71,3.24,3.24,0,0,1,.57,1.05,4,4,0,0,1,.2,1.27,3.6,3.6,0,0,1-.22,1.28,3.23,3.23,0,0,1-.62,1,2.93,2.93,0,0,1-.94.7A2.75,2.75,0,0,1,554.17,578.12Zm-.45-1.38a1.67,1.67,0,0,0,.71-.15,1.71,1.71,0,0,0,.56-.41,1.85,1.85,0,0,0,.36-.59,2.05,2.05,0,0,0,.13-.73,2.26,2.26,0,0,0-.12-.74,1.93,1.93,0,0,0-.35-.62,1.72,1.72,0,0,0-.53-.42,1.43,1.43,0,0,0-.67-.16,1.49,1.49,0,0,0-1,.36,2.37,2.37,0,0,0-.66.88v1.51a1.38,1.38,0,0,0,.25.44,1.79,1.79,0,0,0,.37.33,1.76,1.76,0,0,0,.45.22A1.53,1.53,0,0,0,553.72,576.74Z"/><path d="M563.37,569.4h1.48l3.27,8.59H566.4l-.8-2.14h-3l-.79,2.14h-1.72Zm1.93,5.28-1.19-3.38-1.23,3.38Z"/><path d="M569.06,578V569.4h3.64a2.44,2.44,0,0,1,1.1.25,2.85,2.85,0,0,1,.87.65,3.08,3.08,0,0,1,.57.92,2.76,2.76,0,0,1,.21,1,3,3,0,0,1-.19,1.06,3,3,0,0,1-.54.91,2.7,2.7,0,0,1-.85.64,2.45,2.45,0,0,1-1.09.24h-2V578Zm1.67-4.35h1.94a1,1,0,0,0,.77-.38,1.55,1.55,0,0,0,.31-1,1.66,1.66,0,0,0-.1-.59,1.43,1.43,0,0,0-.25-.44A1,1,0,0,0,573,571a1.08,1.08,0,0,0-.43-.09h-1.86Z"/><path d="M576.6,578V569.4h1.67V578Z"/><path d="M582.25,578.12a4.93,4.93,0,0,1-1.56-.25,3.81,3.81,0,0,1-1.31-.73l.61-1a5.2,5.2,0,0,0,1.13.62,3,3,0,0,0,1.1.21,1.38,1.38,0,0,0,.76-.18.58.58,0,0,0,.28-.52.52.52,0,0,0-.33-.5,7.14,7.14,0,0,0-1.07-.36q-.62-.17-1.05-.33a2.69,2.69,0,0,1-.7-.36,1.22,1.22,0,0,1-.39-.46,1.46,1.46,0,0,1-.12-.62,2,2,0,0,1,.19-.87,1.9,1.9,0,0,1,.53-.66,2.44,2.44,0,0,1,.79-.42,3.21,3.21,0,0,1,1-.15,4.24,4.24,0,0,1,1.34.21,3.25,3.25,0,0,1,1.14.67l-.65,1a3.81,3.81,0,0,0-.94-.53,2.58,2.58,0,0,0-.9-.17,1.31,1.31,0,0,0-.69.17.59.59,0,0,0-.28.55.52.52,0,0,0,.07.28.58.58,0,0,0,.21.19,2.05,2.05,0,0,0,.38.16l.59.16q.65.17,1.12.34a3.05,3.05,0,0,1,.76.39,1.38,1.38,0,0,1,.44.5,1.54,1.54,0,0,1,.14.68,1.76,1.76,0,0,1-.69,1.47A3,3,0,0,1,582.25,578.12Z"/><rect class="d" x="476.06" y="620.34" width="71.22" height="19.02"/><rect class="e" x="480.39" y="623.8" width="62.58" height="12.11"/><path d="M486.79,625.43h1.54l1,2.84,1-2.84h1.55l-1.46,3.91,1.09,2.75,2.43-6.68h1.82l-3.5,8.59h-1.4l-1.49-3.61L487.81,634h-1.4l-3.47-8.59h1.79l2.45,6.68,1.07-2.75Z"/><path d="M498.58,634.12a3.51,3.51,0,0,1-1.38-.26,3.11,3.11,0,0,1-1.73-1.75,3.34,3.34,0,0,1-.24-1.25,3.52,3.52,0,0,1,.23-1.28,3.1,3.1,0,0,1,.67-1.05,3.17,3.17,0,0,1,1.06-.72,3.52,3.52,0,0,1,1.4-.27,3.43,3.43,0,0,1,1.39.27,3.19,3.19,0,0,1,1,.71,3,3,0,0,1,.65,1,3.48,3.48,0,0,1,.22,1.24c0,.1,0,.21,0,.3a1.26,1.26,0,0,1,0,.24H497a1.89,1.89,0,0,0,.18.67,1.63,1.63,0,0,0,.9.81,1.71,1.71,0,0,0,.61.11,1.87,1.87,0,0,0,.91-.24,1.25,1.25,0,0,0,.59-.62l1.39.39a2.83,2.83,0,0,1-1.12,1.19A3.47,3.47,0,0,1,498.58,634.12Zm1.65-3.83a1.69,1.69,0,0,0-.53-1.14,1.7,1.7,0,0,0-1.74-.31,1.59,1.59,0,0,0-.5.32,1.65,1.65,0,0,0-.36.5,1.74,1.74,0,0,0-.16.64Z"/><path d="M506.5,634.12a2.55,2.55,0,0,1-1.3-.33,2.39,2.39,0,0,1-.9-.9V634h-1.42v-8.84h1.62v3.61a2.44,2.44,0,0,1,.89-.9,2.52,2.52,0,0,1,1.29-.32,2.38,2.38,0,0,1,1.13.27,2.83,2.83,0,0,1,.88.71,3.24,3.24,0,0,1,.57,1.05,4,4,0,0,1,.2,1.27,3.6,3.6,0,0,1-.22,1.28,3.22,3.22,0,0,1-.62,1,2.93,2.93,0,0,1-.94.7A2.75,2.75,0,0,1,506.5,634.12Zm-.45-1.38a1.67,1.67,0,0,0,.71-.15,1.7,1.7,0,0,0,.56-.41,1.84,1.84,0,0,0,.36-.59,2.06,2.06,0,0,0,.13-.73,2.25,2.25,0,0,0-.12-.74,1.92,1.92,0,0,0-.34-.62,1.71,1.71,0,0,0-.53-.42,1.42,1.42,0,0,0-.67-.16,1.49,1.49,0,0,0-1,.36,2.37,2.37,0,0,0-.66.88v1.51a1.38,1.38,0,0,0,.25.44,1.8,1.8,0,0,0,.37.33,1.77,1.77,0,0,0,.45.22A1.53,1.53,0,0,0,506,632.74Z"/><path d="M514.37,634.12a2.5,2.5,0,0,1-1.31-.33,2.36,2.36,0,0,1-.87-.9v3.69h-1.62v-8.92H512v1.09a2.59,2.59,0,0,1,.91-.88,2.53,2.53,0,0,1,1.28-.32,2.72,2.72,0,0,1,1.19.26,2.94,2.94,0,0,1,.94.7,3.27,3.27,0,0,1,.62,1,3.58,3.58,0,0,1,.22,1.26,4,4,0,0,1-.21,1.3,3.31,3.31,0,0,1-.57,1.05,2.69,2.69,0,0,1-.88.7A2.46,2.46,0,0,1,514.37,634.12Zm-.54-1.38a1.46,1.46,0,0,0,.67-.16,1.62,1.62,0,0,0,.53-.42,2,2,0,0,0,.34-.62,2.21,2.21,0,0,0,.12-.73,2,2,0,0,0-.13-.74,1.84,1.84,0,0,0-.37-.6,1.73,1.73,0,0,0-.56-.4,1.68,1.68,0,0,0-.7-.15,1.53,1.53,0,0,0-.47.08,1.66,1.66,0,0,0-.45.22,2,2,0,0,0-.37.34,1.42,1.42,0,0,0-.25.42v1.49a2.15,2.15,0,0,0,.67.9A1.52,1.52,0,0,0,513.82,632.74Z"/><path d="M520,634.12a2.4,2.4,0,0,1-.86-.15,2.06,2.06,0,0,1-.69-.42,2,2,0,0,1-.45-.64,1.93,1.93,0,0,1-.16-.8,1.76,1.76,0,0,1,.2-.83,1.9,1.9,0,0,1,.56-.65,2.77,2.77,0,0,1,.85-.42,3.74,3.74,0,0,1,1.09-.15,4.72,4.72,0,0,1,.83.07,3.38,3.38,0,0,1,.72.21V630a1.27,1.27,0,0,0-.36-1,1.48,1.48,0,0,0-1.06-.34,2.81,2.81,0,0,0-1,.18,4.64,4.64,0,0,0-1,.53l-.5-1a4.68,4.68,0,0,1,2.64-.81,3.09,3.09,0,0,1,2.12.67,2.46,2.46,0,0,1,.76,1.94v2a.57.57,0,0,0,.09.36.4.4,0,0,0,.3.12V634a3.61,3.61,0,0,1-.71.09,1.08,1.08,0,0,1-.71-.21.89.89,0,0,1-.31-.54l0-.35a2.81,2.81,0,0,1-1,.85A3,3,0,0,1,520,634.12Zm.46-1.19a2.13,2.13,0,0,0,.78-.15,1.42,1.42,0,0,0,.58-.39.58.58,0,0,0,.27-.46v-.73a4,4,0,0,0-.63-.18,3.43,3.43,0,0,0-.65-.07,1.74,1.74,0,0,0-1,.28.86.86,0,0,0-.4.72.87.87,0,0,0,.31.68A1.14,1.14,0,0,0,520.43,632.94Z"/><path d="M524.79,630.83a3.45,3.45,0,0,1,.23-1.26,3.06,3.06,0,0,1,.67-1,3.24,3.24,0,0,1,1.05-.71,3.47,3.47,0,0,1,1.39-.27,3.33,3.33,0,0,1,1.77.45,2.86,2.86,0,0,1,1.1,1.17l-1.59.48a1.43,1.43,0,0,0-.55-.54,1.53,1.53,0,0,0-.75-.19,1.56,1.56,0,0,0-.65.14,1.61,1.61,0,0,0-.53.39,1.79,1.79,0,0,0-.35.6,2.26,2.26,0,0,0-.13.77,2.16,2.16,0,0,0,.13.78,2,2,0,0,0,.36.61,1.56,1.56,0,0,0,.53.39,1.52,1.52,0,0,0,.64.14,1.55,1.55,0,0,0,.8-.22,1.23,1.23,0,0,0,.51-.53l1.59.48a2.67,2.67,0,0,1-1.08,1.19,3.39,3.39,0,0,1-1.8.46,3.48,3.48,0,0,1-1.39-.27,3.15,3.15,0,0,1-1.73-1.77A3.39,3.39,0,0,1,524.79,630.83Z"/><path d="M536.35,634l-1.84-2.75-.87.86V634H532v-8.84h1.62v5.36l2.54-2.86h1.73l-2.36,2.69,2.53,3.64Z"/><rect class="d" x="603.76" y="604.91" width="61.71" height="19.02"/><rect class="e" x="608.09" y="608.36" width="53.06" height="12.11"/><path d="M614.83,610h1.48l3.27,8.6h-1.72l-.8-2.14h-3l-.79,2.14h-1.72Zm1.93,5.28-1.19-3.38-1.23,3.38Z"/><path d="M626.26,618.57h-1.62V615a1.85,1.85,0,0,0-.27-1.11.87.87,0,0,0-.74-.35,1.39,1.39,0,0,0-.5.1,1.86,1.86,0,0,0-.48.27,2.21,2.21,0,0,0-.41.42,1.67,1.67,0,0,0-.27.53v3.71h-1.62v-6.34h1.46v1.17a2.4,2.4,0,0,1,1-.94,3.25,3.25,0,0,1,1.5-.34,1.91,1.91,0,0,1,1,.22,1.57,1.57,0,0,1,.58.57,2.38,2.38,0,0,1,.28.8,5.25,5.25,0,0,1,.08.91Z"/><path d="M630.16,618.6a2.62,2.62,0,0,1-1.16-.25,2.82,2.82,0,0,1-.9-.7,3.17,3.17,0,0,1-.59-1,3.85,3.85,0,0,1,0-2.52,3.32,3.32,0,0,1,.61-1,2.76,2.76,0,0,1,.93-.7,2.79,2.79,0,0,1,1.2-.26,2.48,2.48,0,0,1,1.3.33,2.82,2.82,0,0,1,.92.89v-1.11h1.42v6a2.88,2.88,0,0,1-.27,1.26,2.77,2.77,0,0,1-.73.94,3.25,3.25,0,0,1-1.11.59,4.62,4.62,0,0,1-1.41.21,4,4,0,0,1-1.75-.34,3.55,3.55,0,0,1-1.22-1l.88-.86a2.51,2.51,0,0,0,.91.7,2.76,2.76,0,0,0,1.17.25,2.48,2.48,0,0,0,.72-.1,1.7,1.7,0,0,0,.61-.32,1.51,1.51,0,0,0,.42-.56,2,2,0,0,0,.15-.8v-.8a2.15,2.15,0,0,1-.88.84A2.61,2.61,0,0,1,630.16,618.6Zm.54-1.3a1.53,1.53,0,0,0,.51-.08,1.81,1.81,0,0,0,.81-.57,1.53,1.53,0,0,0,.24-.41v-1.51a2,2,0,0,0-.68-.9,1.63,1.63,0,0,0-1-.34,1.41,1.41,0,0,0-.68.16,1.71,1.71,0,0,0-.52.44,2,2,0,0,0-.33.62,2.32,2.32,0,0,0-.12.73,2,2,0,0,0,.13.73,1.89,1.89,0,0,0,.37.59,1.74,1.74,0,0,0,.55.4A1.62,1.62,0,0,0,630.7,617.31Z"/><path d="M637.29,618.69a1.8,1.8,0,0,1-1.49-.63,2.92,2.92,0,0,1-.51-1.86v-4h1.62v3.62q0,1.46,1.05,1.46a1.67,1.67,0,0,0,.91-.28,2,2,0,0,0,.72-.87v-3.93h1.62v4.48a.57.57,0,0,0,.09.36.4.4,0,0,0,.3.12v1.38l-.41.06h-.3a1.17,1.17,0,0,1-.71-.2.79.79,0,0,1-.32-.55l0-.51a2.7,2.7,0,0,1-1.09,1A3.28,3.28,0,0,1,637.29,618.69Z"/><path d="M642.82,609.73h1.62v6.8a.8.8,0,0,0,.17.54.61.61,0,0,0,.48.19,1.23,1.23,0,0,0,.32,0,2.19,2.19,0,0,0,.33-.12l.22,1.23a3.11,3.11,0,0,1-.76.24,4.22,4.22,0,0,1-.79.08,1.62,1.62,0,0,1-1.18-.41,1.54,1.54,0,0,1-.42-1.16Z"/><path d="M648.4,618.69a2.41,2.41,0,0,1-.86-.15,2.07,2.07,0,0,1-.69-.42,2,2,0,0,1-.45-.64,1.93,1.93,0,0,1-.16-.8,1.76,1.76,0,0,1,.2-.83,1.9,1.9,0,0,1,.56-.65,2.74,2.74,0,0,1,.85-.42,3.71,3.71,0,0,1,1.09-.15,4.73,4.73,0,0,1,.83.07,3.43,3.43,0,0,1,.72.21v-.36a1.27,1.27,0,0,0-.36-1,1.49,1.49,0,0,0-1.06-.34,2.83,2.83,0,0,0-1,.18,4.61,4.61,0,0,0-1,.53l-.5-1a4.68,4.68,0,0,1,2.64-.81,3.1,3.1,0,0,1,2.12.67,2.46,2.46,0,0,1,.76,1.94v2a.57.57,0,0,0,.09.36.4.4,0,0,0,.3.12v1.38a3.67,3.67,0,0,1-.71.08,1.08,1.08,0,0,1-.71-.21.89.89,0,0,1-.31-.54l0-.35a2.8,2.8,0,0,1-1,.85A3,3,0,0,1,648.4,618.69Zm.46-1.19a2.12,2.12,0,0,0,.78-.15,1.42,1.42,0,0,0,.58-.39.58.58,0,0,0,.27-.46v-.73a4,4,0,0,0-.63-.18,3.43,3.43,0,0,0-.65-.07,1.74,1.74,0,0,0-1,.28.86.86,0,0,0-.4.72.87.87,0,0,0,.31.68A1.15,1.15,0,0,0,648.86,617.5Z"/><path d="M657.4,613.63a3.2,3.2,0,0,0-1.32.29,1.66,1.66,0,0,0-.84.82v3.84h-1.62v-6.34h1.49v1.36a2.86,2.86,0,0,1,.4-.59,3.05,3.05,0,0,1,.5-.45,2.33,2.33,0,0,1,.54-.3,1.49,1.49,0,0,1,.53-.1h.33Z"/><rect class="d" x="566.73" y="629.85" width="47.88" height="19.02"/><rect class="e" x="571.05" y="633.31" width="39.23" height="12.11"/><path d="M574.49,643.51v-8.59h3.8a2.44,2.44,0,0,1,1.1.25,2.85,2.85,0,0,1,.87.65,3.1,3.1,0,0,1,.57.92,2.76,2.76,0,0,1,.21,1,2.86,2.86,0,0,1-.42,1.52,2.4,2.4,0,0,1-1.13,1l2,3.23h-1.88l-1.75-2.88h-1.65v2.88Zm1.67-4.35h2.09a.88.88,0,0,0,.43-.11,1.11,1.11,0,0,0,.35-.3,1.49,1.49,0,0,0,.23-.44,1.74,1.74,0,0,0,.08-.54,1.56,1.56,0,0,0-.1-.56,1.47,1.47,0,0,0-.26-.44,1.19,1.19,0,0,0-.37-.29,1,1,0,0,0-.43-.1h-2Z"/><path d="M585.14,643.63a3.51,3.51,0,0,1-1.38-.26,3.11,3.11,0,0,1-1.73-1.75,3.35,3.35,0,0,1-.24-1.25,3.52,3.52,0,0,1,.23-1.28,3.1,3.1,0,0,1,.67-1.05,3.17,3.17,0,0,1,1.06-.72,3.51,3.51,0,0,1,1.4-.27,3.43,3.43,0,0,1,1.39.27,3.19,3.19,0,0,1,1,.71,3,3,0,0,1,.65,1,3.49,3.49,0,0,1,.22,1.24c0,.1,0,.21,0,.3a1.26,1.26,0,0,1,0,.24h-4.9a1.88,1.88,0,0,0,.18.67,1.63,1.63,0,0,0,.38.5,1.61,1.61,0,0,0,.52.31,1.71,1.71,0,0,0,.61.11,1.87,1.87,0,0,0,.91-.24,1.25,1.25,0,0,0,.59-.62l1.39.39a2.83,2.83,0,0,1-1.12,1.19A3.47,3.47,0,0,1,585.14,643.63Zm1.65-3.83a1.69,1.69,0,0,0-.53-1.14,1.7,1.7,0,0,0-1.74-.31,1.59,1.59,0,0,0-.5.32,1.64,1.64,0,0,0-.36.5,1.72,1.72,0,0,0-.16.64Z"/><path d="M591.18,643.63a2.4,2.4,0,0,1-.86-.15,2.06,2.06,0,0,1-.69-.42,2,2,0,0,1-.45-.64,1.93,1.93,0,0,1-.16-.8,1.76,1.76,0,0,1,.2-.83,1.89,1.89,0,0,1,.56-.65,2.78,2.78,0,0,1,.85-.42,3.74,3.74,0,0,1,1.09-.15,4.73,4.73,0,0,1,.83.07,3.35,3.35,0,0,1,.72.21v-.36a1.27,1.27,0,0,0-.36-1,1.49,1.49,0,0,0-1.06-.34,2.81,2.81,0,0,0-1,.18,4.64,4.64,0,0,0-1,.53l-.5-1a4.68,4.68,0,0,1,2.64-.81,3.09,3.09,0,0,1,2.12.67,2.46,2.46,0,0,1,.76,1.94v2a.57.57,0,0,0,.09.36.4.4,0,0,0,.3.12v1.38a3.61,3.61,0,0,1-.71.09,1.08,1.08,0,0,1-.71-.21.89.89,0,0,1-.31-.54l0-.35a2.81,2.81,0,0,1-1,.85A3,3,0,0,1,591.18,643.63Zm.46-1.19a2.13,2.13,0,0,0,.78-.15,1.42,1.42,0,0,0,.58-.39.58.58,0,0,0,.27-.46v-.73a4,4,0,0,0-.63-.18,3.44,3.44,0,0,0-.65-.07,1.74,1.74,0,0,0-1,.28.86.86,0,0,0-.4.72.87.87,0,0,0,.31.68A1.14,1.14,0,0,0,591.64,642.45Z"/><path d="M596,640.34a3.45,3.45,0,0,1,.23-1.26,3.07,3.07,0,0,1,.67-1,3.24,3.24,0,0,1,1.05-.71,3.47,3.47,0,0,1,1.39-.27,3.34,3.34,0,0,1,1.77.45,2.86,2.86,0,0,1,1.1,1.17l-1.59.48a1.43,1.43,0,0,0-.54-.54,1.52,1.52,0,0,0-.75-.19,1.56,1.56,0,0,0-.65.14,1.62,1.62,0,0,0-.53.39,1.8,1.8,0,0,0-.35.6,2.25,2.25,0,0,0-.13.77,2.15,2.15,0,0,0,.13.78,2,2,0,0,0,.36.61,1.57,1.57,0,0,0,.53.39,1.52,1.52,0,0,0,.64.14,1.56,1.56,0,0,0,.81-.22,1.23,1.23,0,0,0,.51-.53l1.59.48a2.67,2.67,0,0,1-1.08,1.19,3.39,3.39,0,0,1-1.8.46,3.49,3.49,0,0,1-1.39-.27,3.15,3.15,0,0,1-1.72-1.77A3.38,3.38,0,0,1,596,640.34Z"/><path d="M607,643.19a7.11,7.11,0,0,1-.8.29,3.35,3.35,0,0,1-1,.15,2.29,2.29,0,0,1-.64-.08,1.39,1.39,0,0,1-.52-.27,1.34,1.34,0,0,1-.36-.48,1.75,1.75,0,0,1-.13-.72v-3.64h-.83v-1.25h.83v-2.06h1.62v2.06h1.33v1.25h-1.33v3.1a.58.58,0,0,0,.18.48.67.67,0,0,0,.43.14,1.49,1.49,0,0,0,.5-.08l.39-.15Z"/><rect class="d" x="587.39" y="379.28" width="76.96" height="20.75"/><rect class="e" x="591.71" y="382.74" width="68.31" height="13.84"/><path d="M604.56,391.66a1.95,1.95,0,0,1-.82,1.65,2.81,2.81,0,0,1-.88.42,3.87,3.87,0,0,1-1.07.15h-4.15v-8.6h4.6a1.69,1.69,0,0,1,.81.19,2,2,0,0,1,.62.5,2.3,2.3,0,0,1,.39.7,2.36,2.36,0,0,1,.14.79,2.34,2.34,0,0,1-.31,1.18,1.91,1.91,0,0,1-.92.82,2.21,2.21,0,0,1,1.17.78A2.25,2.25,0,0,1,604.56,391.66Zm-5.25-5v2.17h2.23a1,1,0,0,0,.72-.29,1.07,1.07,0,0,0,.3-.8,1.1,1.1,0,0,0-.27-.79.89.89,0,0,0-.67-.29Zm3.57,4.64a1.27,1.27,0,0,0-.08-.44,1.22,1.22,0,0,0-.21-.37,1,1,0,0,0-.31-.25.88.88,0,0,0-.4-.09H599.3v2.26h2.48a1.08,1.08,0,0,0,.43-.08,1,1,0,0,0,.35-.24,1.16,1.16,0,0,0,.31-.79Z"/><path d="M608.64,394a3.49,3.49,0,0,1-1.39-.27,3.12,3.12,0,0,1-1-.72,3.17,3.17,0,0,1-.66-1,3.52,3.52,0,0,1,0-2.51,3.16,3.16,0,0,1,.66-1,3.12,3.12,0,0,1,1-.72,3.49,3.49,0,0,1,1.39-.27,3.44,3.44,0,0,1,1.39.27,3.14,3.14,0,0,1,1,.72,3.17,3.17,0,0,1,.66,1,3.52,3.52,0,0,1,0,2.51,3.22,3.22,0,0,1-.65,1,3.06,3.06,0,0,1-1,.72A3.48,3.48,0,0,1,608.64,394ZM607,390.72a2.21,2.21,0,0,0,.13.77,1.87,1.87,0,0,0,.35.6,1.57,1.57,0,0,0,.53.39,1.6,1.6,0,0,0,1.31,0,1.57,1.57,0,0,0,.53-.39,1.85,1.85,0,0,0,.35-.61,2.27,2.27,0,0,0,.13-.77,2.23,2.23,0,0,0-.13-.76,1.84,1.84,0,0,0-.35-.61,1.57,1.57,0,0,0-.53-.39,1.54,1.54,0,0,0-.65-.14,1.49,1.49,0,0,0-.65.15,1.64,1.64,0,0,0-.53.4,1.86,1.86,0,0,0-.35.61A2.23,2.23,0,0,0,607,390.72Z"/><path d="M616,394a3.49,3.49,0,0,1-1.39-.27,3.13,3.13,0,0,1-1-.72,3.18,3.18,0,0,1-.66-1,3.53,3.53,0,0,1,0-2.51,3.17,3.17,0,0,1,.66-1,3.13,3.13,0,0,1,1-.72,3.49,3.49,0,0,1,1.39-.27,3.44,3.44,0,0,1,1.39.27,3.14,3.14,0,0,1,1,.72,3.18,3.18,0,0,1,.66,1,3.53,3.53,0,0,1,0,2.51,3.25,3.25,0,0,1-.65,1,3.07,3.07,0,0,1-1,.72A3.49,3.49,0,0,1,616,394Zm-1.66-3.28a2.19,2.19,0,0,0,.13.77,1.87,1.87,0,0,0,.35.6,1.57,1.57,0,0,0,.53.39,1.6,1.6,0,0,0,1.31,0,1.57,1.57,0,0,0,.53-.39,1.87,1.87,0,0,0,.35-.61,2.27,2.27,0,0,0,.13-.77,2.23,2.23,0,0,0-.13-.76,1.86,1.86,0,0,0-.35-.61,1.57,1.57,0,0,0-.53-.39,1.54,1.54,0,0,0-.65-.14,1.49,1.49,0,0,0-.65.15,1.65,1.65,0,0,0-.53.4,1.86,1.86,0,0,0-.35.61A2.21,2.21,0,0,0,614.31,390.72Z"/><path d="M624.1,393.55a7.46,7.46,0,0,1-.8.29,3.38,3.38,0,0,1-1,.15,2.3,2.3,0,0,1-.64-.09,1.39,1.39,0,0,1-.52-.27,1.32,1.32,0,0,1-.36-.48,1.75,1.75,0,0,1-.13-.72v-3.64h-.84v-1.25h.84v-2.06h1.62v2.06h1.33v1.25h-1.33v3.1a.58.58,0,0,0,.18.48.67.67,0,0,0,.43.14,1.49,1.49,0,0,0,.5-.08l.39-.15Z"/><path d="M627.34,394a4.91,4.91,0,0,1-1.56-.25,3.81,3.81,0,0,1-1.31-.73l.61-1a5.2,5.2,0,0,0,1.13.62,3,3,0,0,0,1.1.21,1.39,1.39,0,0,0,.76-.18.59.59,0,0,0,.28-.52.52.52,0,0,0-.33-.5,7,7,0,0,0-1.07-.36q-.62-.17-1.05-.33a2.72,2.72,0,0,1-.7-.36,1.22,1.22,0,0,1-.39-.46,1.47,1.47,0,0,1-.12-.62,2,2,0,0,1,.19-.87,1.9,1.9,0,0,1,.53-.66,2.44,2.44,0,0,1,.79-.42,3.24,3.24,0,0,1,1-.15,4.26,4.26,0,0,1,1.34.21,3.26,3.26,0,0,1,1.14.67l-.65,1a3.78,3.78,0,0,0-.94-.53,2.56,2.56,0,0,0-.9-.17,1.3,1.3,0,0,0-.69.17.59.59,0,0,0-.28.54.52.52,0,0,0,.07.28.58.58,0,0,0,.21.19,2,2,0,0,0,.38.16l.59.16q.65.17,1.12.34a3.05,3.05,0,0,1,.76.39,1.38,1.38,0,0,1,.44.5,1.54,1.54,0,0,1,.14.68,1.76,1.76,0,0,1-.69,1.47A3,3,0,0,1,627.34,394Z"/><path d="M634.76,393.55a7.46,7.46,0,0,1-.8.29,3.38,3.38,0,0,1-1,.15,2.3,2.3,0,0,1-.64-.09,1.39,1.39,0,0,1-.52-.27,1.32,1.32,0,0,1-.36-.48,1.75,1.75,0,0,1-.13-.72v-3.64h-.84v-1.25h.84v-2.06h1.62v2.06h1.33v1.25h-1.33v3.1a.58.58,0,0,0,.18.48.67.67,0,0,0,.43.14,1.49,1.49,0,0,0,.5-.08l.39-.15Z"/><path d="M639.39,388.94a3.19,3.19,0,0,0-1.32.28,1.67,1.67,0,0,0-.84.82v3.84h-1.62v-6.34h1.49v1.36a2.86,2.86,0,0,1,.4-.59,3.09,3.09,0,0,1,.5-.45,2.37,2.37,0,0,1,.54-.3,1.49,1.49,0,0,1,.53-.1h.33Z"/><path d="M641.94,394a2.41,2.41,0,0,1-.86-.15,2.06,2.06,0,0,1-.69-.42,2,2,0,0,1-.45-.64,1.93,1.93,0,0,1-.16-.8,1.76,1.76,0,0,1,.2-.83,1.91,1.91,0,0,1,.56-.65,2.74,2.74,0,0,1,.85-.42,3.71,3.71,0,0,1,1.09-.15,4.65,4.65,0,0,1,.83.07,3.38,3.38,0,0,1,.72.21v-.36a1.28,1.28,0,0,0-.36-1,1.49,1.49,0,0,0-1.06-.34,2.81,2.81,0,0,0-1,.18,4.6,4.6,0,0,0-1,.53l-.5-1a4.69,4.69,0,0,1,2.64-.81,3.09,3.09,0,0,1,2.12.67,2.46,2.46,0,0,1,.76,1.94v2a.57.57,0,0,0,.09.36.4.4,0,0,0,.3.12v1.38a3.6,3.6,0,0,1-.71.08,1.08,1.08,0,0,1-.71-.21.88.88,0,0,1-.31-.54l0-.35a2.8,2.8,0,0,1-1,.85A3,3,0,0,1,641.94,394Zm.46-1.19a2.11,2.11,0,0,0,.78-.15,1.41,1.41,0,0,0,.58-.39.58.58,0,0,0,.27-.46v-.73a3.93,3.93,0,0,0-.63-.17,3.37,3.37,0,0,0-.65-.07,1.73,1.73,0,0,0-1,.28.85.85,0,0,0-.4.72.87.87,0,0,0,.31.68A1.14,1.14,0,0,0,642.4,392.81Z"/><path d="M651,394a2.5,2.5,0,0,1-1.31-.33,2.38,2.38,0,0,1-.87-.9v3.69h-1.62v-8.92h1.42v1.09a2.58,2.58,0,0,1,.91-.88,2.52,2.52,0,0,1,1.28-.32,2.71,2.71,0,0,1,1.19.26,3,3,0,0,1,.94.7,3.25,3.25,0,0,1,.62,1,3.58,3.58,0,0,1,.22,1.26,4,4,0,0,1-.21,1.3A3.34,3.34,0,0,1,653,393a2.7,2.7,0,0,1-.88.7A2.45,2.45,0,0,1,651,394Zm-.54-1.38a1.45,1.45,0,0,0,.67-.16,1.63,1.63,0,0,0,.53-.42,2,2,0,0,0,.34-.62,2.21,2.21,0,0,0,.12-.73,2,2,0,0,0-.13-.74,1.85,1.85,0,0,0-.37-.6,1.73,1.73,0,0,0-.56-.4,1.66,1.66,0,0,0-.7-.15,1.52,1.52,0,0,0-.47.08,1.69,1.69,0,0,0-.45.22,2,2,0,0,0-.37.34,1.41,1.41,0,0,0-.25.42v1.49a2.15,2.15,0,0,0,.67.9A1.52,1.52,0,0,0,650.41,392.62Z"/><rect class="d" x="523.74" y="539.26" width="62.26" height="19.02"/><rect class="e" x="528.06" y="542.72" width="54.48" height="12.11"/><path d="M533.89,547.49V553h-1.67v-8.59h1.3L538,550v-5.63h1.67V553h-1.36Z"/><path d="M544.14,553.12a3.49,3.49,0,0,1-1.39-.27,3.11,3.11,0,0,1-1-.72,3.16,3.16,0,0,1-.66-1,3.41,3.41,0,0,1-.23-1.25,3.44,3.44,0,0,1,.23-1.26,3.16,3.16,0,0,1,.66-1,3.11,3.11,0,0,1,1-.72,3.47,3.47,0,0,1,1.39-.27,3.43,3.43,0,0,1,1.39.27,3.13,3.13,0,0,1,1,.72,3.17,3.17,0,0,1,.66,1,3.45,3.45,0,0,1,.23,1.26,3.42,3.42,0,0,1-.23,1.25,3.22,3.22,0,0,1-.65,1,3.06,3.06,0,0,1-1,.72A3.49,3.49,0,0,1,544.14,553.12Zm-1.66-3.28a2.21,2.21,0,0,0,.13.77,1.88,1.88,0,0,0,.35.6,1.57,1.57,0,0,0,.53.39,1.6,1.6,0,0,0,1.31,0,1.57,1.57,0,0,0,.53-.39,1.87,1.87,0,0,0,.35-.61,2.27,2.27,0,0,0,.13-.78,2.23,2.23,0,0,0-.13-.76,1.87,1.87,0,0,0-.35-.61,1.58,1.58,0,0,0-.53-.39,1.56,1.56,0,0,0-.65-.14,1.5,1.5,0,0,0-.65.15,1.65,1.65,0,0,0-.53.4,1.85,1.85,0,0,0-.35.6A2.23,2.23,0,0,0,542.49,549.84Z"/><path d="M551.18,553.12a2.89,2.89,0,0,1-1.21-.25,2.85,2.85,0,0,1-1-.7,3.27,3.27,0,0,1-.62-1,3.65,3.65,0,0,1-.22-1.29,3.79,3.79,0,0,1,.21-1.28,3.35,3.35,0,0,1,.59-1,2.7,2.7,0,0,1,.9-.7,2.57,2.57,0,0,1,1.14-.25,2.4,2.4,0,0,1,1.26.34,2.45,2.45,0,0,1,.88.88v-3.61h1.62v7a.6.6,0,0,0,.08.36.37.37,0,0,0,.29.12V553a3.68,3.68,0,0,1-.69.09,1.13,1.13,0,0,1-.71-.22.8.8,0,0,1-.31-.57l0-.4a2.3,2.3,0,0,1-1,.91A2.7,2.7,0,0,1,551.18,553.12Zm.42-1.38a1.53,1.53,0,0,0,.47-.08,1.65,1.65,0,0,0,.45-.22,2,2,0,0,0,.37-.34,1.4,1.4,0,0,0,.25-.42v-1.51a1.8,1.8,0,0,0-.27-.49,2,2,0,0,0-.4-.39A2.1,2.1,0,0,0,552,548a1.35,1.35,0,0,0-.49-.1,1.46,1.46,0,0,0-.67.16,1.59,1.59,0,0,0-.53.43,2.07,2.07,0,0,0-.34.62,2.2,2.2,0,0,0-.12.73,2,2,0,0,0,.13.74,1.93,1.93,0,0,0,.36.59,1.64,1.64,0,0,0,.55.4A1.69,1.69,0,0,0,551.6,551.74Z"/><path d="M559.3,553.12a3.51,3.51,0,0,1-1.38-.26,3.11,3.11,0,0,1-1.73-1.75,3.35,3.35,0,0,1-.24-1.25,3.52,3.52,0,0,1,.23-1.28,3.1,3.1,0,0,1,.67-1.05,3.17,3.17,0,0,1,1.06-.72,3.51,3.51,0,0,1,1.4-.27,3.43,3.43,0,0,1,1.39.27,3.19,3.19,0,0,1,1,.71,3,3,0,0,1,.65,1,3.47,3.47,0,0,1,.22,1.24c0,.1,0,.21,0,.3a1.26,1.26,0,0,1,0,.24h-4.9a1.9,1.9,0,0,0,.18.67,1.64,1.64,0,0,0,.9.81,1.71,1.71,0,0,0,.61.11,1.87,1.87,0,0,0,.91-.24,1.25,1.25,0,0,0,.59-.62l1.39.39a2.83,2.83,0,0,1-1.12,1.19A3.47,3.47,0,0,1,559.3,553.12Zm1.65-3.83a1.69,1.69,0,0,0-.53-1.14,1.7,1.7,0,0,0-1.74-.31,1.59,1.59,0,0,0-.5.32,1.65,1.65,0,0,0-.36.5,1.74,1.74,0,0,0-.16.64Z"/><path d="M563.2,551.25a2.56,2.56,0,0,0,.57.27,2.68,2.68,0,0,0,.92.15,1.61,1.61,0,0,0,.81-.18,1.1,1.1,0,0,0,.46-.54,3,3,0,0,0,.21-.9q0-.54,0-1.26v-4.37h1.67v4.37a14.21,14.21,0,0,1-.1,1.79,3.63,3.63,0,0,1-.44,1.37,2.25,2.25,0,0,1-1,.88,3.82,3.82,0,0,1-1.69.31,3.21,3.21,0,0,1-1.86-.53Z"/><path d="M574.7,546.66a2,2,0,0,0-.31-.23,3.75,3.75,0,0,0-.54-.28,4.73,4.73,0,0,0-.7-.24,3.06,3.06,0,0,0-.76-.1,1.71,1.71,0,0,0-1,.25.84.84,0,0,0-.34.71.74.74,0,0,0,.13.44,1.1,1.1,0,0,0,.37.31,3.07,3.07,0,0,0,.61.24l.85.23q.63.17,1.14.36a3.11,3.11,0,0,1,.87.48,2,2,0,0,1,.55.7,2.31,2.31,0,0,1,.19,1,2.48,2.48,0,0,1-.26,1.18,2.18,2.18,0,0,1-.7.79,3.05,3.05,0,0,1-1,.44,5.1,5.1,0,0,1-1.21.14,6.48,6.48,0,0,1-1.91-.29,5.92,5.92,0,0,1-1.69-.82l.74-1.44a2.29,2.29,0,0,0,.39.28,5.94,5.94,0,0,0,.67.35,5.31,5.31,0,0,0,.86.3,3.87,3.87,0,0,0,1,.12q1.38,0,1.38-.88a.73.73,0,0,0-.16-.47,1.33,1.33,0,0,0-.45-.34,4.28,4.28,0,0,0-.7-.27l-.92-.27a7.69,7.69,0,0,1-1.07-.37,2.78,2.78,0,0,1-.76-.47,1.76,1.76,0,0,1-.45-.63,2.17,2.17,0,0,1-.15-.85,2.66,2.66,0,0,1,.24-1.16,2.35,2.35,0,0,1,.67-.85,3.06,3.06,0,0,1,1-.51,4.12,4.12,0,0,1,1.22-.18,4.73,4.73,0,0,1,1.67.28,6.23,6.23,0,0,1,1.33.67Z"/><rect class="d" x="606.51" y="552.52" width="74.36" height="20.75"/><rect class="e" x="610.84" y="555.98" width="65.72" height="13.84"/><path d="M623,567.13v-5.69l-2.21,4.24h-.91l-2.21-4.24v5.69H616v-8.59h1.79l2.54,4.89,2.57-4.89h1.78v8.59Z"/><path d="M629.16,567.25a3.49,3.49,0,0,1-1.39-.27,3.12,3.12,0,0,1-1-.72,3.16,3.16,0,0,1-.66-1,3.41,3.41,0,0,1-.23-1.25,3.44,3.44,0,0,1,.23-1.26,3.16,3.16,0,0,1,.66-1,3.12,3.12,0,0,1,1-.72,3.47,3.47,0,0,1,1.39-.27,3.43,3.43,0,0,1,1.39.27,3.13,3.13,0,0,1,1,.72,3.17,3.17,0,0,1,.66,1,3.46,3.46,0,0,1,.23,1.26,3.43,3.43,0,0,1-.23,1.25,3.23,3.23,0,0,1-.65,1,3.06,3.06,0,0,1-1,.72A3.49,3.49,0,0,1,629.16,567.25ZM627.5,564a2.2,2.2,0,0,0,.13.77,1.88,1.88,0,0,0,.35.6,1.57,1.57,0,0,0,.53.39,1.6,1.6,0,0,0,1.31,0,1.57,1.57,0,0,0,.53-.39,1.88,1.88,0,0,0,.35-.61,2.27,2.27,0,0,0,.13-.78,2.23,2.23,0,0,0-.13-.76,1.88,1.88,0,0,0-.35-.61,1.58,1.58,0,0,0-.53-.39,1.56,1.56,0,0,0-.65-.14,1.5,1.5,0,0,0-.65.15,1.65,1.65,0,0,0-.53.4,1.85,1.85,0,0,0-.35.6A2.22,2.22,0,0,0,627.5,564Z"/><path d="M639.46,567.13h-1.62v-3.56a1.85,1.85,0,0,0-.27-1.11.87.87,0,0,0-.74-.35,1.4,1.4,0,0,0-.5.1,1.85,1.85,0,0,0-.48.27,2.22,2.22,0,0,0-.41.42,1.64,1.64,0,0,0-.27.53v3.7h-1.62v-6.34H635V562a2.4,2.4,0,0,1,1-.94,3.26,3.26,0,0,1,1.5-.34,1.91,1.91,0,0,1,1,.22,1.58,1.58,0,0,1,.58.57,2.41,2.41,0,0,1,.28.8,5.25,5.25,0,0,1,.08.91Z"/><path d="M643.36,567.16a2.61,2.61,0,0,1-1.16-.25,2.81,2.81,0,0,1-.9-.7,3.16,3.16,0,0,1-.59-1,3.84,3.84,0,0,1,0-2.52,3.31,3.31,0,0,1,.61-1,2.75,2.75,0,0,1,.93-.7,2.81,2.81,0,0,1,1.2-.25,2.48,2.48,0,0,1,1.3.33,2.81,2.81,0,0,1,.92.89v-1.11h1.42v6a2.89,2.89,0,0,1-.27,1.26,2.76,2.76,0,0,1-.73.94,3.26,3.26,0,0,1-1.11.59,4.62,4.62,0,0,1-1.41.21,4,4,0,0,1-1.75-.34,3.56,3.56,0,0,1-1.22-1l.88-.86a2.52,2.52,0,0,0,.91.7,2.75,2.75,0,0,0,1.17.25,2.52,2.52,0,0,0,.72-.1,1.73,1.73,0,0,0,.61-.32,1.49,1.49,0,0,0,.42-.56,1.94,1.94,0,0,0,.15-.8V566a2.14,2.14,0,0,1-.88.84A2.61,2.61,0,0,1,643.36,567.16Zm.54-1.3a1.53,1.53,0,0,0,.51-.08,1.84,1.84,0,0,0,.45-.23,1.82,1.82,0,0,0,.36-.34,1.54,1.54,0,0,0,.24-.41v-1.51a2,2,0,0,0-.68-.9,1.63,1.63,0,0,0-1-.34,1.4,1.4,0,0,0-.68.16,1.69,1.69,0,0,0-.52.44,2,2,0,0,0-.33.62,2.32,2.32,0,0,0-.11.73,2,2,0,0,0,.13.73,1.86,1.86,0,0,0,.37.59,1.72,1.72,0,0,0,.55.4A1.62,1.62,0,0,0,643.9,565.87Z"/><path d="M651.48,567.25a3.49,3.49,0,0,1-1.39-.27,3.11,3.11,0,0,1-1-.72,3.15,3.15,0,0,1-.66-1,3.41,3.41,0,0,1-.23-1.25,3.44,3.44,0,0,1,.23-1.26,3.15,3.15,0,0,1,.66-1,3.11,3.11,0,0,1,1-.72,3.47,3.47,0,0,1,1.39-.27,3.43,3.43,0,0,1,1.39.27,3.13,3.13,0,0,1,1,.72,3.16,3.16,0,0,1,.66,1,3.44,3.44,0,0,1,.23,1.26,3.41,3.41,0,0,1-.23,1.25,3.21,3.21,0,0,1-.65,1,3.05,3.05,0,0,1-1,.72A3.48,3.48,0,0,1,651.48,567.25ZM649.82,564a2.22,2.22,0,0,0,.13.77,1.88,1.88,0,0,0,.35.6,1.56,1.56,0,0,0,.53.39,1.6,1.6,0,0,0,1.31,0,1.57,1.57,0,0,0,.53-.39,1.86,1.86,0,0,0,.35-.61,2.27,2.27,0,0,0,.13-.78,2.23,2.23,0,0,0-.13-.76,1.86,1.86,0,0,0-.35-.61,1.59,1.59,0,0,0-.53-.39,1.56,1.56,0,0,0-.65-.14,1.5,1.5,0,0,0-.65.15,1.64,1.64,0,0,0-.53.4,1.85,1.85,0,0,0-.35.6A2.24,2.24,0,0,0,649.82,564Z"/><path d="M656,567.13v-8.59h3.12a4.68,4.68,0,0,1,1.85.34,3.72,3.72,0,0,1,2.12,2.28,5.13,5.13,0,0,1,.27,1.67,5,5,0,0,1-.3,1.77,3.8,3.8,0,0,1-.85,1.36,3.85,3.85,0,0,1-1.34.87,4.74,4.74,0,0,1-1.75.31Zm5.68-4.31a3.65,3.65,0,0,0-.17-1.14,2.54,2.54,0,0,0-.5-.9,2.21,2.21,0,0,0-.81-.58,2.72,2.72,0,0,0-1.08-.21h-1.45v5.67h1.45a2.62,2.62,0,0,0,1.1-.22,2.24,2.24,0,0,0,.8-.6,2.66,2.66,0,0,0,.49-.9A3.61,3.61,0,0,0,661.64,562.82Z"/><path d="M671.55,564.91a1.95,1.95,0,0,1-.82,1.65,2.79,2.79,0,0,1-.88.42,3.83,3.83,0,0,1-1.07.15h-4.15v-8.59h4.6a1.69,1.69,0,0,1,.81.19,2,2,0,0,1,.62.5,2.31,2.31,0,0,1,.39.7,2.36,2.36,0,0,1,.14.79,2.33,2.33,0,0,1-.31,1.18,1.91,1.91,0,0,1-.92.82,2.21,2.21,0,0,1,1.17.78A2.25,2.25,0,0,1,671.55,564.91Zm-5.25-5v2.17h2.23a1,1,0,0,0,.72-.29,1.07,1.07,0,0,0,.3-.8,1.11,1.11,0,0,0-.27-.79.89.89,0,0,0-.67-.29Zm3.57,4.64a1.26,1.26,0,0,0-.08-.44,1.22,1.22,0,0,0-.21-.37,1,1,0,0,0-.31-.25.88.88,0,0,0-.4-.09H666.3v2.26h2.48a1.08,1.08,0,0,0,.43-.08,1,1,0,0,0,.35-.24,1.16,1.16,0,0,0,.31-.79Z"/><rect class="d" x="606.94" y="524.26" width="63.99" height="20.75"/><rect class="e" x="611.27" y="527.72" width="55.34" height="13.84"/><path d="M623.16,537.4v1.47h-6v-8.6H623v1.47h-4.19v2.07h3.62v1.36h-3.62v2.24Z"/><path d="M625.31,532.52l1.37,2,.1.22.12-.22,1.36-2h1.67l-2.26,3.18,2.3,3.16h-1.67l-1.4-2-.11-.21-.1.21-1.39,2h-1.67l2.29-3.16-2.25-3.18Z"/><path d="M634.54,539a2.5,2.5,0,0,1-1.31-.33,2.38,2.38,0,0,1-.87-.9v3.69h-1.62v-8.92h1.42v1.09a2.58,2.58,0,0,1,.91-.88,2.52,2.52,0,0,1,1.28-.32,2.71,2.71,0,0,1,1.19.26,3,3,0,0,1,.94.7,3.25,3.25,0,0,1,.62,1,3.58,3.58,0,0,1,.22,1.26,4,4,0,0,1-.21,1.3,3.34,3.34,0,0,1-.58,1.05,2.7,2.7,0,0,1-.88.7A2.45,2.45,0,0,1,634.54,539ZM634,537.6a1.45,1.45,0,0,0,.67-.16,1.63,1.63,0,0,0,.53-.42,2,2,0,0,0,.34-.62,2.21,2.21,0,0,0,.12-.73,2,2,0,0,0-.13-.74,1.85,1.85,0,0,0-.37-.6,1.73,1.73,0,0,0-.56-.4,1.66,1.66,0,0,0-.7-.15,1.52,1.52,0,0,0-.47.08,1.69,1.69,0,0,0-.45.22,2,2,0,0,0-.37.34,1.41,1.41,0,0,0-.25.42v1.49a2.15,2.15,0,0,0,.67.9A1.52,1.52,0,0,0,634,537.6Z"/><path d="M642.19,533.92a3.19,3.19,0,0,0-1.32.28,1.67,1.67,0,0,0-.84.82v3.84h-1.62v-6.34h1.49v1.36a2.86,2.86,0,0,1,.4-.59,3.09,3.09,0,0,1,.5-.45,2.37,2.37,0,0,1,.54-.3,1.49,1.49,0,0,1,.53-.1h.33Z"/><path d="M645.72,539a3.53,3.53,0,0,1-1.38-.26,3.12,3.12,0,0,1-1.73-1.75,3.34,3.34,0,0,1-.24-1.25,3.53,3.53,0,0,1,.23-1.28,3.1,3.1,0,0,1,.67-1.05,3.18,3.18,0,0,1,1.06-.72,3.53,3.53,0,0,1,1.4-.27,3.44,3.44,0,0,1,1.39.27,3.17,3.17,0,0,1,1,.71,3,3,0,0,1,.65,1,3.46,3.46,0,0,1,.22,1.23c0,.1,0,.21,0,.3a1.25,1.25,0,0,1,0,.24h-4.9a1.9,1.9,0,0,0,.18.67,1.64,1.64,0,0,0,.38.5,1.62,1.62,0,0,0,.52.31,1.71,1.71,0,0,0,.61.11,1.87,1.87,0,0,0,.91-.24,1.25,1.25,0,0,0,.59-.62l1.39.39a2.83,2.83,0,0,1-1.12,1.19A3.47,3.47,0,0,1,645.72,539Zm1.65-3.83a1.69,1.69,0,0,0-.53-1.14,1.61,1.61,0,0,0-1.13-.43,1.63,1.63,0,0,0-.61.11,1.6,1.6,0,0,0-.5.32,1.68,1.68,0,0,0-.36.5,1.75,1.75,0,0,0-.16.64Z"/><path d="M652.43,539a4.9,4.9,0,0,1-1.56-.25,3.81,3.81,0,0,1-1.31-.73l.6-1a5.21,5.21,0,0,0,1.13.62,3,3,0,0,0,1.1.21,1.39,1.39,0,0,0,.76-.18.59.59,0,0,0,.28-.52.52.52,0,0,0-.33-.5,7,7,0,0,0-1.06-.36q-.62-.17-1.05-.33a2.71,2.71,0,0,1-.7-.36,1.22,1.22,0,0,1-.39-.46,1.47,1.47,0,0,1-.12-.62,2,2,0,0,1,.19-.87,1.9,1.9,0,0,1,.53-.66,2.43,2.43,0,0,1,.79-.42,3.23,3.23,0,0,1,1-.15,4.25,4.25,0,0,1,1.34.21,3.26,3.26,0,0,1,1.14.67l-.65,1a3.81,3.81,0,0,0-.94-.53,2.57,2.57,0,0,0-.9-.17,1.31,1.31,0,0,0-.69.17.59.59,0,0,0-.28.54.52.52,0,0,0,.07.28.58.58,0,0,0,.21.19,2.07,2.07,0,0,0,.38.16l.59.16q.65.17,1.12.34a3.07,3.07,0,0,1,.76.39,1.38,1.38,0,0,1,.44.5,1.56,1.56,0,0,1,.14.68,1.77,1.77,0,0,1-.69,1.47A3,3,0,0,1,652.43,539Z"/><path d="M658.45,539a4.9,4.9,0,0,1-1.56-.25,3.81,3.81,0,0,1-1.31-.73l.6-1a5.21,5.21,0,0,0,1.13.62,3,3,0,0,0,1.1.21,1.39,1.39,0,0,0,.76-.18.59.59,0,0,0,.28-.52.52.52,0,0,0-.33-.5,7,7,0,0,0-1.06-.36q-.62-.17-1.05-.33a2.71,2.71,0,0,1-.7-.36,1.22,1.22,0,0,1-.39-.46,1.47,1.47,0,0,1-.12-.62,2,2,0,0,1,.19-.87,1.9,1.9,0,0,1,.53-.66,2.43,2.43,0,0,1,.79-.42,3.23,3.23,0,0,1,1-.15,4.25,4.25,0,0,1,1.34.21,3.26,3.26,0,0,1,1.14.67l-.65,1a3.81,3.81,0,0,0-.94-.53,2.57,2.57,0,0,0-.9-.17,1.31,1.31,0,0,0-.69.17.59.59,0,0,0-.28.54.52.52,0,0,0,.07.28.58.58,0,0,0,.21.19,2.07,2.07,0,0,0,.38.16l.59.16q.65.17,1.12.34a3.07,3.07,0,0,1,.76.39,1.38,1.38,0,0,1,.44.5,1.56,1.56,0,0,1,.14.68,1.77,1.77,0,0,1-.69,1.47A3,3,0,0,1,658.45,539Z"/><polyline class="d" points="606.51 565.03 601.35 565.03 588.9 552.6 586 552.52"/><polyline class="d" points="586 543.69 588.9 543.61 601.35 531.18 606.51 531.18"/><polyline class="d" points="500.66 506.5 500.62 517.34 500.59 518.97 497.64 521.91 485.98 533.58"/><polyline class="d" points="494.54 506.5 494.47 516.52 493.63 517.37 493.36 517.63 481.7 529.29"/><polyline class="d" points="489.85 538.47 501.79 526.55 502.92 525.42 507.08 525.42 523.74 525.42"/><polyline class="d" points="494.18 542.79 505.51 531.48 506.7 531.48 507.08 531.48 523.74 531.48"/><polyline class="d" points="502.75 551.37 502.75 551.36 507.03 547.09 510.7 543.58 518.8 543.58 523.74 543.58"/><polyline class="d" points="506.53 556.54 513.14 550.07 523.74 550.07"/><polyline class="d" points="488.99 581.55 500.92 593.47 502.05 594.6 506.22 594.6 564.56 594.6 587.99 618.02 587.99 629.66"/><polyline class="d" points="493.31 577.23 504.65 588.54 567.16 588.54 593.03 614.42 603.76 614.42"/><polyline class="d" points="522.88 582.49 511.88 582.49 507.24 582.49 506.17 581.55 497.57 572.98 497.56 572.97"/><rect class="d" x="593.96" y="352.28" width="88.2" height="20.75"/><rect class="e" x="598.29" y="355.74" width="79.55" height="13.84"/><path d="M605.55,366.88v-8.6h3.8a2.44,2.44,0,0,1,1.1.25,2.84,2.84,0,0,1,.87.65,3.1,3.1,0,0,1,.57.92,2.78,2.78,0,0,1,.21,1,2.86,2.86,0,0,1-.42,1.52,2.4,2.4,0,0,1-1.13,1l2,3.23h-1.88L608.87,364h-1.65v2.88Zm1.67-4.35h2.1a.89.89,0,0,0,.43-.11,1.11,1.11,0,0,0,.34-.3,1.46,1.46,0,0,0,.23-.44,1.71,1.71,0,0,0,.09-.55,1.54,1.54,0,0,0-.1-.56,1.44,1.44,0,0,0-.26-.44,1.18,1.18,0,0,0-.37-.29,1,1,0,0,0-.43-.1h-2Z"/><path d="M616.21,367a3.53,3.53,0,0,1-1.38-.26,3.16,3.16,0,0,1-1.05-.71,3.13,3.13,0,0,1-.67-1,3.33,3.33,0,0,1-.24-1.25,3.53,3.53,0,0,1,.23-1.28,3.11,3.11,0,0,1,.67-1.05,3.18,3.18,0,0,1,1.06-.72,3.53,3.53,0,0,1,1.4-.27,3.44,3.44,0,0,1,1.39.27,3.19,3.19,0,0,1,1,.71,3,3,0,0,1,.65,1,3.48,3.48,0,0,1,.22,1.23c0,.1,0,.21,0,.3a1.25,1.25,0,0,1,0,.24h-4.9a1.88,1.88,0,0,0,.18.67,1.65,1.65,0,0,0,.37.5,1.63,1.63,0,0,0,.52.31,1.71,1.71,0,0,0,.61.11,1.87,1.87,0,0,0,.91-.24,1.25,1.25,0,0,0,.59-.62l1.39.39a2.83,2.83,0,0,1-1.12,1.19A3.47,3.47,0,0,1,616.21,367Zm1.65-3.83a1.69,1.69,0,0,0-.53-1.14,1.61,1.61,0,0,0-1.13-.43,1.63,1.63,0,0,0-.61.11,1.6,1.6,0,0,0-.5.32,1.66,1.66,0,0,0-.36.5,1.75,1.75,0,0,0-.16.64Z"/><path d="M622.91,367a4.9,4.9,0,0,1-1.56-.25A3.81,3.81,0,0,1,620,366l.6-1a5.21,5.21,0,0,0,1.13.62,3,3,0,0,0,1.1.21,1.39,1.39,0,0,0,.76-.18.59.59,0,0,0,.28-.52.52.52,0,0,0-.33-.5,7,7,0,0,0-1.06-.36q-.62-.17-1.05-.33a2.71,2.71,0,0,1-.7-.36,1.22,1.22,0,0,1-.39-.46,1.47,1.47,0,0,1-.12-.62,2,2,0,0,1,.19-.87A1.9,1.9,0,0,1,621,361a2.43,2.43,0,0,1,.79-.42,3.23,3.23,0,0,1,1-.15,4.25,4.25,0,0,1,1.34.21,3.26,3.26,0,0,1,1.14.67l-.65,1a3.81,3.81,0,0,0-.94-.53,2.57,2.57,0,0,0-.9-.17,1.31,1.31,0,0,0-.69.17.59.59,0,0,0-.28.54.52.52,0,0,0,.07.28.58.58,0,0,0,.21.19,2.07,2.07,0,0,0,.38.16l.59.16q.65.17,1.12.34a3.07,3.07,0,0,1,.76.39,1.38,1.38,0,0,1,.44.5,1.56,1.56,0,0,1,.14.68,1.77,1.77,0,0,1-.69,1.47A3,3,0,0,1,622.91,367Z"/><path d="M630.33,367a2.5,2.5,0,0,1-1.31-.33,2.36,2.36,0,0,1-.87-.9v3.69h-1.62v-8.92h1.42v1.09a2.59,2.59,0,0,1,.91-.88,2.52,2.52,0,0,1,1.28-.32,2.71,2.71,0,0,1,1.19.26,3,3,0,0,1,.94.7,3.28,3.28,0,0,1,.62,1,3.58,3.58,0,0,1,.22,1.26,4,4,0,0,1-.21,1.3,3.32,3.32,0,0,1-.57,1.05,2.69,2.69,0,0,1-.88.7A2.45,2.45,0,0,1,630.33,367Zm-.54-1.38a1.45,1.45,0,0,0,.67-.16A1.63,1.63,0,0,0,631,365a2,2,0,0,0,.34-.62,2.23,2.23,0,0,0,.12-.73,2,2,0,0,0-.13-.74,1.84,1.84,0,0,0-.37-.6,1.72,1.72,0,0,0-.56-.4,1.67,1.67,0,0,0-.7-.15,1.53,1.53,0,0,0-.47.08,1.67,1.67,0,0,0-.45.22,2,2,0,0,0-.37.34,1.41,1.41,0,0,0-.25.42v1.49a2.16,2.16,0,0,0,.67.9A1.52,1.52,0,0,0,629.79,365.63Z"/><path d="M637.14,367a3.49,3.49,0,0,1-1.39-.27,3.13,3.13,0,0,1-1-.72,3.18,3.18,0,0,1-.66-1,3.53,3.53,0,0,1,0-2.51,3.17,3.17,0,0,1,.66-1,3.13,3.13,0,0,1,1-.72,3.49,3.49,0,0,1,1.39-.27,3.44,3.44,0,0,1,1.39.27,3.14,3.14,0,0,1,1,.72,3.18,3.18,0,0,1,.66,1,3.53,3.53,0,0,1,0,2.51,3.25,3.25,0,0,1-.65,1,3.07,3.07,0,0,1-1,.72A3.49,3.49,0,0,1,637.14,367Zm-1.66-3.28a2.19,2.19,0,0,0,.13.77,1.87,1.87,0,0,0,.35.6,1.57,1.57,0,0,0,.53.39,1.6,1.6,0,0,0,1.31,0,1.57,1.57,0,0,0,.53-.39,1.87,1.87,0,0,0,.35-.61,2.27,2.27,0,0,0,.13-.77,2.23,2.23,0,0,0-.13-.76,1.86,1.86,0,0,0-.35-.61,1.57,1.57,0,0,0-.53-.39,1.54,1.54,0,0,0-.65-.14,1.49,1.49,0,0,0-.65.15,1.65,1.65,0,0,0-.53.4,1.86,1.86,0,0,0-.35.61A2.21,2.21,0,0,0,635.48,363.72Z"/><path d="M647.44,366.88h-1.62v-3.56a1.85,1.85,0,0,0-.27-1.11.87.87,0,0,0-.74-.35,1.4,1.4,0,0,0-.5.1,1.83,1.83,0,0,0-.48.27,2.19,2.19,0,0,0-.41.42,1.65,1.65,0,0,0-.27.53v3.7h-1.62v-6.34H643v1.17a2.4,2.4,0,0,1,1-.94,3.27,3.27,0,0,1,1.5-.34,1.91,1.91,0,0,1,1,.22,1.57,1.57,0,0,1,.58.57,2.4,2.4,0,0,1,.28.8,5.24,5.24,0,0,1,.08.91Z"/><path d="M651.25,367a4.91,4.91,0,0,1-1.56-.25,3.81,3.81,0,0,1-1.31-.73l.61-1a5.2,5.2,0,0,0,1.13.62,3,3,0,0,0,1.1.21,1.39,1.39,0,0,0,.76-.18.59.59,0,0,0,.28-.52.52.52,0,0,0-.33-.5,7,7,0,0,0-1.07-.36q-.62-.17-1.05-.33a2.72,2.72,0,0,1-.7-.36,1.22,1.22,0,0,1-.39-.46,1.47,1.47,0,0,1-.12-.62,2,2,0,0,1,.19-.87,1.9,1.9,0,0,1,.53-.66,2.44,2.44,0,0,1,.79-.42,3.24,3.24,0,0,1,1-.15,4.26,4.26,0,0,1,1.34.21,3.26,3.26,0,0,1,1.14.67l-.65,1a3.78,3.78,0,0,0-.94-.53,2.56,2.56,0,0,0-.9-.17,1.3,1.3,0,0,0-.69.17.59.59,0,0,0-.28.54.52.52,0,0,0,.07.28.58.58,0,0,0,.21.19,2,2,0,0,0,.38.16l.59.16q.65.17,1.12.34a3.05,3.05,0,0,1,.76.39,1.38,1.38,0,0,1,.44.5,1.54,1.54,0,0,1,.14.68,1.76,1.76,0,0,1-.69,1.47A3,3,0,0,1,651.25,367Z"/><path d="M654.87,359.66V358h1.62v1.61Zm0,7.23v-6.34h1.62v6.34Z"/><path d="M659.67,366.88l-2.34-6.34H659l1.61,5,1.62-5h1.53l-2.34,6.34Z"/><path d="M667.33,367a3.53,3.53,0,0,1-1.38-.26,3.16,3.16,0,0,1-1.05-.71,3.13,3.13,0,0,1-.67-1,3.33,3.33,0,0,1-.24-1.25,3.53,3.53,0,0,1,.23-1.28,3.11,3.11,0,0,1,.67-1.05,3.18,3.18,0,0,1,1.06-.72,3.53,3.53,0,0,1,1.4-.27,3.44,3.44,0,0,1,1.39.27,3.19,3.19,0,0,1,1,.71,3,3,0,0,1,.65,1,3.48,3.48,0,0,1,.22,1.23c0,.1,0,.21,0,.3a1.25,1.25,0,0,1,0,.24h-4.9a1.88,1.88,0,0,0,.18.67,1.65,1.65,0,0,0,.37.5,1.63,1.63,0,0,0,.52.31,1.71,1.71,0,0,0,.61.11,1.87,1.87,0,0,0,.91-.24,1.25,1.25,0,0,0,.59-.62l1.39.39a2.83,2.83,0,0,1-1.12,1.19A3.47,3.47,0,0,1,667.33,367Zm1.65-3.83a1.69,1.69,0,0,0-.53-1.14,1.61,1.61,0,0,0-1.13-.43,1.63,1.63,0,0,0-.61.11,1.6,1.6,0,0,0-.5.32,1.66,1.66,0,0,0-.36.5,1.75,1.75,0,0,0-.16.64Z"/><line class="d" x1="480.5" y1="309.25" x2="507.85" y2="309.25"/></g></g></svg>